<svg xmlns="http://www.w3.org/2000/svg" width="1200" height="660" viewBox="0 0 1200 660">
<rect width="100%" height="100%" fill="#ffffff"/>
<text x="48" y="48" font-size="28" font-weight="800" fill="#111827">Sovereign AI / 国产算力与自主可控：A股候选估值与证据状态</text>
<text x="48" y="86" font-size="16" fill="#4b5563">PE/PB来自公开行情或补充数据；缺失时保留为待验证，不用估算值填充。</text>
<text x="56" y="163" font-size="17" font-weight="700" fill="#111827">寒武纪</text>
<text x="56" y="189" font-size="14" fill="#6b7280">688256</text>
<rect x="210" y="138" width="820.0" height="34" rx="7" fill="#dc2626" opacity="0.84"/>
<text x="1045.0" y="162" font-size="15" fill="#111827">PE 326.3 / PB 68.9</text>
<text x="210" y="195" font-size="14" fill="#4b5563">财务指标未取得可靠公开数据；第一上海证券《AI Agent时代来临，国产算力支撑AI建设》；预测PE 83.9/49.7</text>
<text x="56" y="237" font-size="17" font-weight="700" fill="#111827">海光信息</text>
<text x="56" y="263" font-size="14" fill="#6b7280">688041</text>
<rect x="210" y="212" width="781.8" height="34" rx="7" fill="#dc2626" opacity="0.84"/>
<text x="1006.8" y="236" font-size="15" fill="#111827">PE 309.9 / PB 36.5</text>
<text x="210" y="269" font-size="14" fill="#4b5563">2026一季报；营收同比 68.06%；归母净利同比 35.82%；毛利率 55.60%；中银证券《双芯驱动，生态筑基，引领国产算力新纪元…</text>
<text x="56" y="311" font-size="17" font-weight="700" fill="#111827">龙芯中科</text>
<text x="56" y="337" font-size="14" fill="#6b7280">688047</text>
<rect x="210" y="286" width="-275.1" height="34" rx="7" fill="#059669" opacity="0.84"/>
<text x="-50.1" y="310" font-size="15" fill="#111827">PE -143.9 / PB 25.1</text>
<text x="210" y="343" font-size="14" fill="#4b5563">2026一季报；营收同比 7.96%；归母净利同比 24.66%；毛利率 34.87%；东海证券《公司简评报告：下游需求显著回暖，持续拓展…</text>
<text x="56" y="385" font-size="17" font-weight="700" fill="#111827">海光信息</text>
<text x="56" y="411" font-size="14" fill="#6b7280">688041</text>
<rect x="210" y="360" width="781.8" height="34" rx="7" fill="#dc2626" opacity="0.84"/>
<text x="1006.8" y="384" font-size="15" fill="#111827">PE 309.9 / PB 36.5</text>
<text x="210" y="417" font-size="14" fill="#4b5563">2026一季报；营收同比 68.06%；归母净利同比 35.82%；毛利率 55.60%；中银证券《双芯驱动，生态筑基，引领国产算力新纪元…</text>
<text x="56" y="459" font-size="17" font-weight="700" fill="#111827">龙芯中科</text>
<text x="56" y="485" font-size="14" fill="#6b7280">688047</text>
<rect x="210" y="434" width="-275.1" height="34" rx="7" fill="#059669" opacity="0.84"/>
<text x="-50.1" y="458" font-size="15" fill="#111827">PE -143.9 / PB 25.1</text>
<text x="210" y="491" font-size="14" fill="#4b5563">2026一季报；营收同比 7.96%；归母净利同比 24.66%；毛利率 34.87%；东海证券《公司简评报告：下游需求显著回暖，持续拓展…</text>
<text x="56" y="533" font-size="17" font-weight="700" fill="#111827">中科曙光</text>
<text x="56" y="559" font-size="14" fill="#6b7280">603019</text>
<rect x="210" y="508" width="219.8" height="34" rx="7" fill="#ea580c" opacity="0.84"/>
<text x="444.8" y="532" font-size="15" fill="#111827">PE 68.6 / PB 6.9</text>
<text x="210" y="565" font-size="14" fill="#4b5563">2026一季报；营收同比 23.71%；归母净利同比 22.19%；毛利率 26.56%；太平洋《业绩稳健增长，落地全国首个6万卡集群》；…</text>
<text x="56" y="607" font-size="17" font-weight="700" fill="#111827">浪潮信息</text>
<text x="56" y="633" font-size="14" fill="#6b7280">000977</text>
<rect x="210" y="582" width="175.1" height="34" rx="7" fill="#059669" opacity="0.84"/>
<text x="400.1" y="606" font-size="15" fill="#111827">PE 49.4 / PB 5.7</text>
<text x="210" y="639" font-size="14" fill="#4b5563">2026一季报；营收同比 -24.30%；归母净利同比 30.74%；毛利率 6.64%；中邮证券《深度布局国产算力生态，业绩表现大超市场…</text>
<text x="56" y="681" font-size="17" font-weight="700" fill="#111827">工业富联</text>
<text x="56" y="707" font-size="14" fill="#6b7280">601138</text>
<rect x="210" y="656" width="139.1" height="34" rx="7" fill="#059669" opacity="0.84"/>
<text x="364.1" y="680" font-size="15" fill="#111827">PE 33.9 / PB 7.8</text>
<text x="210" y="713" font-size="14" fill="#4b5563">2026一季报；营收同比 56.52%；归母净利同比 102.55%；毛利率 7.35%；金元证券《AI服务器销售占比提升，毛利预期持续改…</text>
</svg>