<svg xmlns="http://www.w3.org/2000/svg" width="1100" height="640" viewBox="0 0 1100 640">
<rect width="100%" height="100%" fill="#ffffff"/>
<text x="75" y="32" font-size="22" font-weight="800" fill="#111827">秦川机床 000837 90日趋势/支撑压力</text>
<line x1="75" y1="55.0" x2="1070" y2="55.0" stroke="#e5e7eb"/>
<text x="18" y="60.0" font-size="14" fill="#4b5563">13.2</text>
<line x1="75" y1="187.5" x2="1070" y2="187.5" stroke="#e5e7eb"/>
<text x="18" y="192.5" font-size="14" fill="#4b5563">12.5</text>
<line x1="75" y1="320.0" x2="1070" y2="320.0" stroke="#e5e7eb"/>
<text x="18" y="325.0" font-size="14" fill="#4b5563">11.7</text>
<line x1="75" y1="452.5" x2="1070" y2="452.5" stroke="#e5e7eb"/>
<text x="18" y="457.5" font-size="14" fill="#4b5563">10.9</text>
<line x1="75" y1="585.0" x2="1070" y2="585.0" stroke="#e5e7eb"/>
<text x="18" y="590.0" font-size="14" fill="#4b5563">10.1</text>
<line x1="75" y1="585.0" x2="1070" y2="585.0" stroke="#16a34a" stroke-width="1.8" stroke-dasharray="8 7"/>
<text x="988" y="578.0" font-size="13" font-weight="700" fill="#16a34a">S1 10.11</text>
<line x1="75" y1="585.0" x2="1070" y2="585.0" stroke="#15803d" stroke-width="1.8" stroke-dasharray="8 7"/>
<text x="988" y="578.0" font-size="13" font-weight="700" fill="#15803d">S2 10.11</text>
<line x1="75" y1="365.6" x2="1070" y2="365.6" stroke="#dc2626" stroke-width="1.8" stroke-dasharray="8 7"/>
<text x="988" y="358.6" font-size="13" font-weight="700" fill="#dc2626">R1 11.41</text>
<line x1="75" y1="343.6" x2="1070" y2="343.6" stroke="#991b1b" stroke-width="1.8" stroke-dasharray="8 7"/>
<text x="988" y="336.6" font-size="13" font-weight="700" fill="#991b1b">R2 11.54</text>
<polyline fill="none" stroke="#2563eb" stroke-width="3" points="75.0,255.9 86.2,223.8 97.4,201.8 108.5,213.7 119.7,183.3 130.9,190.0 142.1,176.5 153.3,163.0 164.4,164.7 175.6,186.7 186.8,220.4 198.0,348.7 209.2,365.6 220.3,304.8 231.5,289.6 242.7,311.6 253.9,279.5 265.1,169.8 276.2,191.7 287.4,244.0 298.6,272.7 309.8,320.0 321.0,311.6 332.1,385.8 343.3,460.1 354.5,559.7 365.7,529.3 376.9,495.5 388.0,507.4 399.2,507.4 410.4,505.7 421.6,514.1 432.8,490.5 443.9,534.4 455.1,585.0 466.3,559.7 477.5,468.5 488.7,502.3 499.8,480.4 511.0,471.9 522.2,441.5 533.4,460.1 544.6,450.0 555.7,434.8 566.9,431.4 578.1,443.2 589.3,439.8 600.4,473.6 611.6,483.7 622.8,453.3 634.0,488.8 645.2,443.2 656.3,416.2 667.5,409.5 678.7,340.3 689.9,299.7 701.1,303.1 712.2,228.9 723.4,244.0 734.6,287.9 745.8,206.9 757.0,212.0 768.1,136.0 779.3,200.2 790.5,151.2 801.7,156.3 812.9,188.3 824.0,178.2 835.2,257.5 846.4,240.7 857.6,333.5 868.8,358.8 879.9,375.7 891.1,362.2 902.3,355.4 913.5,262.6 924.7,152.9 935.8,55.0 947.0,173.2 958.2,222.1 969.4,232.2 980.6,206.9 991.7,185.0 1002.9,260.9 1014.1,232.2 1025.3,308.2 1036.5,277.8 1047.6,336.9 1058.8,424.6 1070.0,477.0"/>
<polyline fill="none" stroke="#f59e0b" stroke-width="2" points="287.4,234.3 298.6,235.1 309.8,239.9 321.0,245.4 332.1,254.0 343.3,267.8 354.5,286.3 365.7,304.0 376.9,320.6 388.0,337.7 399.2,353.8 410.4,368.0 421.6,376.3 432.8,382.5 443.9,394.0 455.1,408.8 466.3,421.2 477.5,430.6 488.7,447.3 499.8,461.7 511.0,473.1 522.2,481.5 533.4,488.5 544.6,495.5 555.7,497.9 566.9,496.5 578.1,490.6 589.3,486.2 600.4,485.1 611.6,483.9 622.8,481.2 634.0,480.4 645.2,476.8 656.3,473.1 667.5,466.8 678.7,454.6 689.9,441.6 701.1,433.3 712.2,419.7 723.4,407.9 734.6,398.7 745.8,386.9 757.0,374.5 768.1,358.8 779.3,347.1 790.5,333.1 801.7,318.7 812.9,306.2 824.0,291.4 835.2,280.1 846.4,269.4 857.6,261.7 868.8,257.5 879.9,255.4 891.1,253.1 902.3,253.8 913.5,252.0 924.7,244.5 935.8,235.8 947.0,232.2 958.2,228.9 969.4,230.2 980.6,230.0 991.7,232.4 1002.9,235.4 1014.1,239.5 1025.3,247.1 1036.5,251.6 1047.6,259.5 1058.8,267.8 1070.0,279.7"/>
<polyline fill="none" stroke="#7c3aed" stroke-width="2" points="734.6,368.7 745.8,367.9 757.0,367.7 768.1,366.6 779.3,366.3 790.5,365.8 801.7,365.2 812.9,365.4 824.0,365.7 835.2,367.2 846.4,368.1 857.6,370.0 868.8,370.2 879.9,370.4 891.1,371.3 902.3,372.4 913.5,371.6 924.7,369.5 935.8,367.6 947.0,367.3 958.2,366.9 969.4,366.2 980.6,364.3 991.7,362.2 1002.9,360.1 1014.1,356.3 1025.3,352.2 1036.5,348.0 1047.6,345.3 1058.8,343.9 1070.0,343.4"/>
<text x="75" y="622" font-size="14" fill="#374151">2026-02-06</text>
<text x="970" y="622" font-size="14" fill="#374151">2026-06-26</text>
<text x="880" y="32" font-size="15" fill="#111827">最新 10.75</text>
<text x="320" y="32" font-size="14" fill="#2563eb">收盘</text>
<text x="375" y="32" font-size="14" fill="#f59e0b">MA20</text>
<text x="440" y="32" font-size="14" fill="#7c3aed">MA60</text>
</svg>