<svg xmlns="http://www.w3.org/2000/svg" width="1100" height="640" viewBox="0 0 1100 640">
<rect width="100%" height="100%" fill="#ffffff"/>
<text x="75" y="32" font-size="22" font-weight="800" fill="#111827">鸣志电器 603728 90日趋势/支撑压力</text>
<line x1="75" y1="55.0" x2="1070" y2="55.0" stroke="#e5e7eb"/>
<text x="18" y="60.0" font-size="14" fill="#4b5563">72.4</text>
<line x1="75" y1="187.5" x2="1070" y2="187.5" stroke="#e5e7eb"/>
<text x="18" y="192.5" font-size="14" fill="#4b5563">68.0</text>
<line x1="75" y1="320.0" x2="1070" y2="320.0" stroke="#e5e7eb"/>
<text x="18" y="325.0" font-size="14" fill="#4b5563">63.6</text>
<line x1="75" y1="452.5" x2="1070" y2="452.5" stroke="#e5e7eb"/>
<text x="18" y="457.5" font-size="14" fill="#4b5563">59.2</text>
<line x1="75" y1="585.0" x2="1070" y2="585.0" stroke="#e5e7eb"/>
<text x="18" y="590.0" font-size="14" fill="#4b5563">54.7</text>
<line x1="75" y1="553.3" x2="1070" y2="553.3" stroke="#16a34a" stroke-width="1.8" stroke-dasharray="8 7"/>
<text x="988" y="546.3" font-size="13" font-weight="700" fill="#16a34a">S1 55.80</text>
<line x1="75" y1="585.0" x2="1070" y2="585.0" stroke="#15803d" stroke-width="1.8" stroke-dasharray="8 7"/>
<text x="988" y="578.0" font-size="13" font-weight="700" fill="#15803d">S2 54.74</text>
<line x1="75" y1="462.8" x2="1070" y2="462.8" stroke="#dc2626" stroke-width="1.8" stroke-dasharray="8 7"/>
<text x="988" y="455.8" font-size="13" font-weight="700" fill="#dc2626">R1 58.82</text>
<line x1="75" y1="414.3" x2="1070" y2="414.3" stroke="#991b1b" stroke-width="1.8" stroke-dasharray="8 7"/>
<text x="988" y="407.3" font-size="13" font-weight="700" fill="#991b1b">R2 60.44</text>
<polyline fill="none" stroke="#2563eb" stroke-width="3" points="75.0,124.5 86.2,93.6 97.4,71.2 108.5,117.0 119.7,78.1 130.9,55.0 142.1,69.7 153.3,114.6 164.4,149.6 175.6,154.7 186.8,232.0 198.0,349.9 209.2,367.0 220.3,354.1 231.5,346.1 242.7,359.2 253.9,308.9 265.1,334.7 276.2,351.1 287.4,382.6 298.6,399.4 309.8,454.4 321.0,435.6 332.1,482.6 343.3,512.5 354.5,501.8 365.7,526.9 376.9,506.5 388.0,512.5 399.2,494.6 410.4,498.2 421.6,518.5 432.8,480.5 443.9,532.3 455.1,559.2 466.3,575.7 477.5,470.9 488.7,508.6 499.8,471.8 511.0,487.7 522.2,461.9 533.4,470.9 544.6,449.1 555.7,438.3 566.9,452.6 578.1,470.3 589.3,458.9 600.4,503.6 611.6,515.8 622.8,496.4 634.0,519.4 645.2,474.5 656.3,447.6 667.5,427.2 678.7,388.0 689.9,323.9 701.1,311.0 712.2,325.4 723.4,324.8 734.6,376.0 745.8,278.7 757.0,214.0 768.1,197.2 779.3,234.4 790.5,206.5 801.7,182.9 812.9,158.9 824.0,128.7 835.2,232.0 846.4,286.2 857.6,388.6 868.8,435.0 879.9,352.9 891.1,359.8 902.3,322.7 913.5,253.8 924.7,205.0 935.8,244.8 947.0,347.5 958.2,391.6 969.4,407.1 980.6,360.1 991.7,362.2 1002.9,388.3 1014.1,311.9 1025.3,418.5 1036.5,444.9 1047.6,436.8 1058.8,462.5 1070.0,552.1"/>
<polyline fill="none" stroke="#f59e0b" stroke-width="2" points="287.4,220.7 298.6,234.4 309.8,252.5 321.0,270.7 332.1,289.0 343.3,310.7 354.5,333.0 365.7,355.9 376.9,375.5 388.0,393.6 399.2,410.6 410.4,423.9 421.6,432.4 432.8,438.0 443.9,446.9 455.1,457.6 466.3,468.4 477.5,476.5 488.7,485.2 499.8,491.3 511.0,496.5 522.2,499.6 533.4,500.5 544.6,501.1 555.7,498.9 566.9,495.9 578.1,494.4 589.3,491.0 600.4,490.8 611.6,491.0 622.8,491.1 634.0,492.1 645.2,489.9 656.3,488.3 667.5,483.0 678.7,474.5 689.9,461.9 701.1,453.9 712.2,444.7 723.4,437.4 734.6,431.8 745.8,422.6 757.0,409.8 768.1,397.2 779.3,387.0 790.5,374.7 801.7,360.3 812.9,345.3 824.0,326.6 835.2,312.4 846.4,301.9 857.6,295.3 868.8,293.3 879.9,288.6 891.1,285.2 902.3,282.0 913.5,278.5 924.7,273.2 935.8,269.1 947.0,270.3 958.2,271.1 969.4,277.5 980.6,284.8 991.7,293.0 1002.9,300.7 1014.1,306.0 1025.3,317.8 1036.5,332.1 1047.6,347.5 1058.8,359.0 1070.0,372.3"/>
<polyline fill="none" stroke="#7c3aed" stroke-width="2" points="734.6,383.0 745.8,385.6 757.0,387.6 768.1,389.7 779.3,391.6 790.5,393.8 801.7,395.9 812.9,397.4 824.0,397.6 835.2,399.0 846.4,401.2 857.6,403.8 868.8,405.2 879.9,405.0 891.1,405.1 902.3,404.7 913.5,402.9 924.7,401.2 935.8,399.7 947.0,399.6 958.2,399.8 969.4,399.9 980.6,398.3 991.7,397.1 1002.9,395.5 1014.1,392.2 1025.3,390.8 1036.5,389.4 1047.6,388.3 1058.8,387.5 1070.0,388.4"/>
<text x="75" y="622" font-size="14" fill="#374151">2026-02-06</text>
<text x="970" y="622" font-size="14" fill="#374151">2026-06-26</text>
<text x="880" y="32" font-size="15" fill="#111827">最新 55.84</text>
<text x="320" y="32" font-size="14" fill="#2563eb">收盘</text>
<text x="375" y="32" font-size="14" fill="#f59e0b">MA20</text>
<text x="440" y="32" font-size="14" fill="#7c3aed">MA60</text>
</svg>