<svg xmlns="http://www.w3.org/2000/svg" width="1100" height="640" viewBox="0 0 1100 640">
<rect width="100%" height="100%" fill="#ffffff"/>
<text x="75" y="32" font-size="22" font-weight="800" fill="#111827">绿的谐波 688017 90日趋势/支撑压力</text>
<line x1="75" y1="55.0" x2="1070" y2="55.0" stroke="#e5e7eb"/>
<text x="18" y="60.0" font-size="14" fill="#4b5563">450.2</text>
<line x1="75" y1="187.5" x2="1070" y2="187.5" stroke="#e5e7eb"/>
<text x="18" y="192.5" font-size="14" fill="#4b5563">382.9</text>
<line x1="75" y1="320.0" x2="1070" y2="320.0" stroke="#e5e7eb"/>
<text x="18" y="325.0" font-size="14" fill="#4b5563">315.5</text>
<line x1="75" y1="452.5" x2="1070" y2="452.5" stroke="#e5e7eb"/>
<text x="18" y="457.5" font-size="14" fill="#4b5563">248.2</text>
<line x1="75" y1="585.0" x2="1070" y2="585.0" stroke="#e5e7eb"/>
<text x="18" y="590.0" font-size="14" fill="#4b5563">180.9</text>
<line x1="75" y1="187.0" x2="1070" y2="187.0" stroke="#16a34a" stroke-width="1.8" stroke-dasharray="8 7"/>
<text x="988" y="180.0" font-size="13" font-weight="700" fill="#16a34a">S1 383.10</text>
<line x1="75" y1="192.2" x2="1070" y2="192.2" stroke="#15803d" stroke-width="1.8" stroke-dasharray="8 7"/>
<text x="988" y="185.2" font-size="13" font-weight="700" fill="#15803d">S2 380.49</text>
<line x1="75" y1="55.0" x2="1070" y2="55.0" stroke="#dc2626" stroke-width="1.8" stroke-dasharray="8 7"/>
<text x="988" y="48.0" font-size="13" font-weight="700" fill="#dc2626">R1 450.20</text>
<line x1="75" y1="55.0" x2="1070" y2="55.0" stroke="#991b1b" stroke-width="1.8" stroke-dasharray="8 7"/>
<text x="988" y="48.0" font-size="13" font-weight="700" fill="#991b1b">R2 450.20</text>
<polyline fill="none" stroke="#2563eb" stroke-width="3" points="75.0,513.1 86.2,496.0 97.4,490.3 108.5,490.7 119.7,479.5 130.9,464.0 142.1,483.0 153.3,475.3 164.4,474.5 175.6,483.7 186.8,493.2 198.0,528.5 209.2,525.3 220.3,521.8 231.5,522.9 242.7,531.0 253.9,516.3 265.1,530.3 276.2,538.1 287.4,551.3 298.6,554.8 309.8,566.0 321.0,557.6 332.1,567.7 343.3,574.9 354.5,585.0 365.7,582.8 376.9,571.0 388.0,570.4 399.2,571.7 410.4,564.6 421.6,572.6 432.8,543.5 443.9,560.2 455.1,572.4 466.3,575.6 477.5,540.6 488.7,548.8 499.8,539.5 511.0,541.5 522.2,533.8 533.4,534.6 544.6,531.7 555.7,521.8 566.9,526.2 578.1,521.2 589.3,508.0 600.4,540.0 611.6,537.0 622.8,520.2 634.0,532.3 645.2,517.8 656.3,499.9 667.5,494.6 678.7,487.4 689.9,423.4 701.1,407.7 712.2,402.0 723.4,390.6 734.6,419.5 745.8,339.8 757.0,305.6 768.1,299.1 779.3,304.0 790.5,281.7 801.7,267.9 812.9,254.2 824.0,274.9 835.2,309.3 846.4,318.8 857.6,338.8 868.8,375.6 879.9,338.8 891.1,321.3 902.3,296.5 913.5,167.6 924.7,98.2 935.8,114.1 947.0,106.6 958.2,218.7 969.4,250.2 980.6,207.7 991.7,200.6 1002.9,190.0 1014.1,138.0 1025.3,167.0 1036.5,196.0 1047.6,186.9 1058.8,171.5 1070.0,213.9"/>
<polyline fill="none" stroke="#f59e0b" stroke-width="2" points="287.4,505.4 298.6,507.5 309.8,511.0 321.0,514.4 332.1,518.2 343.3,523.0 354.5,529.1 365.7,534.0 376.9,538.8 388.0,543.6 399.2,548.0 410.4,551.6 421.6,553.8 432.8,554.7 443.9,556.6 455.1,559.1 466.3,561.3 477.5,562.5 488.7,563.5 499.8,563.5 511.0,563.1 522.2,562.0 533.4,560.4 544.6,559.1 555.7,556.8 566.9,554.4 578.1,551.2 589.3,547.5 600.4,545.9 611.6,544.3 622.8,541.7 634.0,540.1 645.2,537.3 656.3,535.1 667.5,531.9 678.7,527.6 689.9,520.0 701.1,513.4 712.2,506.0 723.4,498.6 734.6,492.5 745.8,482.8 757.0,471.3 768.1,459.7 779.3,448.8 790.5,436.6 801.7,423.9 812.9,411.2 824.0,398.0 835.2,386.6 846.4,376.5 857.6,366.8 868.8,359.7 879.9,351.7 891.1,343.0 902.3,333.5 913.5,320.7 924.7,305.2 935.8,290.8 947.0,276.6 958.2,266.6 969.4,262.1 980.6,257.2 991.7,252.3 1002.9,246.6 1014.1,239.4 1025.3,234.3 1036.5,231.4 1047.6,227.0 1058.8,220.1 1070.0,214.9"/>
<polyline fill="none" stroke="#7c3aed" stroke-width="2" points="734.6,520.3 745.8,517.4 757.0,514.3 768.1,511.1 779.3,508.0 790.5,504.7 801.7,501.4 812.9,497.6 824.0,494.2 835.2,491.5 846.4,488.7 857.6,486.2 868.8,483.6 879.9,480.5 891.1,477.2 902.3,473.4 913.5,467.3 924.7,460.4 935.8,453.4 947.0,446.2 958.2,440.7 969.4,435.6 980.6,429.7 991.7,423.7 1002.9,417.4 1014.1,410.1 1025.3,403.2 1036.5,396.7 1047.6,390.3 1058.8,383.7 1070.0,377.7"/>
<text x="75" y="622" font-size="14" fill="#374151">2026-02-06</text>
<text x="970" y="622" font-size="14" fill="#374151">2026-06-26</text>
<text x="880" y="32" font-size="15" fill="#111827">最新 369.46</text>
<text x="320" y="32" font-size="14" fill="#2563eb">收盘</text>
<text x="375" y="32" font-size="14" fill="#f59e0b">MA20</text>
<text x="440" y="32" font-size="14" fill="#7c3aed">MA60</text>
</svg>