<svg xmlns="http://www.w3.org/2000/svg" width="1100" height="640" viewBox="0 0 1100 640">
<rect width="100%" height="100%" fill="#ffffff"/>
<text x="75" y="32" font-size="22" font-weight="800" fill="#111827">绿的谐波 90日价格走势</text>
<line x1="75" y1="55.0" x2="1070" y2="55.0" stroke="#e5e7eb"/>
<text x="18" y="60.0" font-size="14" fill="#4b5563">428.2</text>
<line x1="75" y1="187.5" x2="1070" y2="187.5" stroke="#e5e7eb"/>
<text x="18" y="192.5" font-size="14" fill="#4b5563">366.4</text>
<line x1="75" y1="320.0" x2="1070" y2="320.0" stroke="#e5e7eb"/>
<text x="18" y="325.0" font-size="14" fill="#4b5563">304.6</text>
<line x1="75" y1="452.5" x2="1070" y2="452.5" stroke="#e5e7eb"/>
<text x="18" y="457.5" font-size="14" fill="#4b5563">242.7</text>
<line x1="75" y1="585.0" x2="1070" y2="585.0" stroke="#e5e7eb"/>
<text x="18" y="590.0" font-size="14" fill="#4b5563">180.9</text>
<polyline fill="none" stroke="#2563eb" stroke-width="3" points="75.0,506.8 86.2,488.1 97.4,481.9 108.5,482.3 119.7,470.2 130.9,453.2 142.1,474.0 153.3,465.6 164.4,464.7 175.6,474.7 186.8,485.0 198.0,523.5 209.2,520.0 220.3,516.2 231.5,517.4 242.7,526.2 253.9,510.2 265.1,525.4 276.2,533.9 287.4,548.3 298.6,552.1 309.8,564.4 321.0,555.2 332.1,566.2 343.3,574.0 354.5,585.0 365.7,582.6 376.9,569.8 388.0,569.1 399.2,570.5 410.4,562.8 421.6,571.5 432.8,539.8 443.9,558.0 455.1,571.2 466.3,574.8 477.5,536.6 488.7,545.6 499.8,535.5 511.0,537.6 522.2,529.3 533.4,530.1 544.6,526.9 555.7,516.2 566.9,521.0 578.1,515.5 589.3,501.2 600.4,536.0 611.6,532.8 622.8,514.5 634.0,527.6 645.2,511.9 656.3,492.4 667.5,486.6 678.7,478.7 689.9,409.1 701.1,391.9 712.2,385.8 723.4,373.4 734.6,404.8 745.8,318.0 757.0,280.8 768.1,273.7 779.3,279.1 790.5,254.8 801.7,239.8 812.9,224.8 824.0,247.4 835.2,284.8 846.4,295.2 857.6,316.9 868.8,357.0 879.9,316.9 891.1,297.9 902.3,270.9 913.5,130.5 924.7,55.0 935.8,72.3 947.0,64.1 958.2,186.2 969.4,220.5 980.6,174.2 991.7,166.5 1002.9,154.9 1014.1,98.4 1025.3,129.9 1036.5,161.5 1047.6,151.6 1058.8,134.8 1070.0,181.0"/>
<text x="75" y="622" font-size="14" fill="#374151">2026-02-06</text>
<text x="970" y="622" font-size="14" fill="#374151">2026-06-26</text>
<text x="880" y="32" font-size="15" fill="#111827">最新 369.46</text>
</svg>