<svg xmlns="http://www.w3.org/2000/svg" width="1280" height="760" viewBox="0 0 1280 760">
<style>
text{font-family:'PingFang SC','Microsoft YaHei',Arial,sans-serif} .title{font-size:34px;font-weight:800;fill:#111827} .h{font-size:22px;font-weight:800;fill:#111827} .h2{font-size:17px;font-weight:800;fill:#111827} .s{font-size:17px;fill:#374151} .s2{font-size:14px;fill:#334155} .box{rx:14;stroke-width:2} .u{fill:#eef2ff;stroke:#4f46e5} .m{fill:#ecfdf5;stroke:#059669} .d{fill:#fff7ed;stroke:#ea580c} .arrow{stroke:#475569;stroke-width:3;marker-end:url(#a)}
</style>
<defs><marker id="a" markerWidth="12" markerHeight="12" refX="10" refY="6" orient="auto"><path d="M2,2 L10,6 L2,10 Z" fill="#475569"/></marker></defs>
<rect width="1280" height="760" fill="#ffffff"/>
<text x="54" y="62" class="title">AI 算力基础设施：产业链、卡口与证据链</text>
<text x="54" y="100" class="s">方法：大趋势 -> 供应链 -> 物理约束 -> 瓶颈卡口 -> 稀缺供应商 -> 交易纪律</text>
<rect x="70" y="150" width="320" height="250" class="box u"/><text x="98" y="190" class="h">上游供给约束</text>
<text x="98" y="235" class="s">1. 高端基板材料</text><text x="98" y="275" class="s">2. 光刻/刻蚀/检测设备</text><text x="98" y="315" class="s">3. EDA/IP</text>
<rect x="480" y="150" width="320" height="250" class="box m"/><text x="508" y="190" class="h">中游价值承接</text>
<text x="508" y="235" class="s">1. IC封装基板</text><text x="508" y="275" class="s">2. 芯片设计</text><text x="508" y="315" class="s">3. 封测</text>
<rect x="890" y="150" width="320" height="250" class="box d"/><text x="918" y="190" class="h">下游需求验证</text>
<text x="918" y="235" class="s">1. AI服务器</text><text x="918" y="275" class="s">2. 数据中心</text><text x="918" y="315" class="s">3. 国产CPU/GPU替代</text>
<line x1="395" y1="305" x2="475" y2="305" class="arrow"/><line x1="805" y1="305" x2="885" y2="305" class="arrow"/>
<text x="70" y="452" class="h">核心节点与三家核心受益公司</text>
<rect x="70" y="500" width="350" height="88" rx="14" fill="#f8fafc" stroke="#94a3b8" stroke-width="1.6"/><text x="88" y="530" class="h2">CPO/高速光模块</text><text x="88" y="561" class="s2">中际旭创 / 新易盛 / 天孚通信</text><rect x="475" y="500" width="350" height="88" rx="14" fill="#f8fafc" stroke="#94a3b8" stroke-width="1.6"/><text x="493" y="530" class="h2">AI服务器PCB/交换机PCB</text><text x="493" y="561" class="s2">沪电股份 / 胜宏科技 / 深南电路</text><rect x="880" y="500" width="350" height="88" rx="14" fill="#f8fafc" stroke="#94a3b8" stroke-width="1.6"/><text x="898" y="530" class="h2">AI服务器组装与供应链管理</text><text x="898" y="561" class="s2">工业富联 / 浪潮信息 / 中科曙光</text><rect x="70" y="618" width="350" height="88" rx="14" fill="#f8fafc" stroke="#94a3b8" stroke-width="1.6"/><text x="88" y="648" class="h2">液冷/数据中心温控</text><text x="88" y="679" class="s2">英维克 / 申菱环境 / 高澜股份</text><rect x="475" y="618" width="350" height="88" rx="14" fill="#f8fafc" stroke="#94a3b8" stroke-width="1.6"/><text x="493" y="648" class="h2">先进封装/封测与材料</text><text x="493" y="679" class="s2">通富微电 / 长电科技 / 华天科技</text><rect x="880" y="618" width="350" height="88" rx="14" fill="#f8fafc" stroke="#94a3b8" stroke-width="1.6"/><text x="898" y="648" class="h2">国产算力芯片</text><text x="898" y="679" class="s2">寒武纪 / 海光信息 / 龙芯中科</text>
</svg>