<svg xmlns="http://www.w3.org/2000/svg" width="1280" height="720" viewBox="0 0 1280 720">
<rect width="100%" height="100%" fill="#ffffff"/>
<text x="46" y="52" font-size="30" font-weight="800" fill="#111827">空间 / 国防 AI：核心标的交易结构</text>
<text x="46" y="90" font-size="16" fill="#4b5563">横轴为支撑-现价-压力的相对位置；没有完整K线时用现价/前收降级估算，需后续证据校正。</text>
<line x1="260" y1="132" x2="1130" y2="132" stroke="#cbd5e1" stroke-width="2"/>
<text x="252" y="118" font-size="14" fill="#64748b">支撑</text><text x="672" y="118" font-size="14" fill="#64748b">现价</text><text x="1112" y="118" font-size="14" fill="#64748b">压力</text>
<text x="46" y="177" font-size="16" font-weight="700" fill="#111827">航天宏图</text>
<text x="46" y="201" font-size="13" fill="#64748b">688066 · 卫星遥感</text>
<line x1="260" y1="170" x2="1130" y2="170" stroke="#e2e8f0" stroke-width="10" stroke-linecap="round"/>
<circle cx="468.8" cy="170" r="12" fill="#2563eb"/>
<text x="260" y="200" font-size="12" fill="#64748b">9.42</text>
<text x="484.8" y="175" font-size="13" fill="#111827">10.44</text>
<text x="1090" y="200" font-size="12" fill="#64748b">13.67</text>
<text x="46" y="239" font-size="16" font-weight="700" fill="#111827">中科星图</text>
<text x="46" y="263" font-size="13" fill="#64748b">688568 · 卫星遥感</text>
<line x1="260" y1="232" x2="1130" y2="232" stroke="#e2e8f0" stroke-width="10" stroke-linecap="round"/>
<circle cx="316.5" cy="232" r="12" fill="#2563eb"/>
<text x="260" y="262" font-size="12" fill="#64748b">33.90</text>
<text x="332.5" y="237" font-size="13" fill="#111827">34.68</text>
<text x="1090" y="262" font-size="12" fill="#64748b">45.92</text>
<text x="46" y="301" font-size="16" font-weight="700" fill="#111827">航宇微</text>
<text x="46" y="325" font-size="13" fill="#64748b">300053 · 卫星遥感</text>
<line x1="260" y1="294" x2="1130" y2="294" stroke="#e2e8f0" stroke-width="10" stroke-linecap="round"/>
<circle cx="405.7" cy="294" r="12" fill="#2563eb"/>
<text x="260" y="324" font-size="12" fill="#64748b">13.61</text>
<text x="421.7" y="299" font-size="13" fill="#111827">14.32</text>
<text x="1090" y="324" font-size="12" fill="#64748b">17.85</text>
<text x="46" y="363" font-size="16" font-weight="700" fill="#111827">航天彩虹</text>
<text x="46" y="387" font-size="13" fill="#64748b">002389 · 商业航天</text>
<line x1="260" y1="356" x2="1130" y2="356" stroke="#e2e8f0" stroke-width="10" stroke-linecap="round"/>
<circle cx="365.9" cy="356" r="12" fill="#2563eb"/>
<text x="260" y="386" font-size="12" fill="#64748b">16.57</text>
<text x="381.9" y="361" font-size="13" fill="#111827">16.90</text>
<text x="1090" y="386" font-size="12" fill="#64748b">19.28</text>
<text x="46" y="425" font-size="16" font-weight="700" fill="#111827">上海瀚讯</text>
<text x="46" y="449" font-size="13" fill="#64748b">300762 · 商业航天</text>
<line x1="260" y1="418" x2="1130" y2="418" stroke="#e2e8f0" stroke-width="10" stroke-linecap="round"/>
<circle cx="352.0" cy="418" r="12" fill="#2563eb"/>
<text x="260" y="448" font-size="12" fill="#64748b">35.18</text>
<text x="368.0" y="423" font-size="13" fill="#111827">36.74</text>
<text x="1090" y="448" font-size="12" fill="#64748b">49.94</text>
<text x="46" y="487" font-size="16" font-weight="700" fill="#111827">航天电子</text>
<text x="46" y="511" font-size="13" fill="#64748b">600879 · 商业航天</text>
<line x1="260" y1="480" x2="1130" y2="480" stroke="#e2e8f0" stroke-width="10" stroke-linecap="round"/>
<circle cx="465.1" cy="480" r="12" fill="#2563eb"/>
<text x="260" y="510" font-size="12" fill="#64748b">18.07</text>
<text x="481.1" y="485" font-size="13" fill="#111827">19.31</text>
<text x="1090" y="510" font-size="12" fill="#64748b">23.33</text>
<text x="46" y="549" font-size="16" font-weight="700" fill="#111827">中无人机</text>
<text x="46" y="573" font-size="13" fill="#64748b">688297 · 军工AI</text>
<line x1="260" y1="542" x2="1130" y2="542" stroke="#e2e8f0" stroke-width="10" stroke-linecap="round"/>
<circle cx="351.3" cy="542" r="12" fill="#2563eb"/>
<text x="260" y="572" font-size="12" fill="#64748b">39.02</text>
<text x="367.3" y="547" font-size="13" fill="#111827">39.95</text>
<text x="1090" y="572" font-size="12" fill="#64748b">47.88</text>
<text x="46" y="611" font-size="16" font-weight="700" fill="#111827">中科星图</text>
<text x="46" y="635" font-size="13" fill="#64748b">688568 · 军工AI</text>
<line x1="260" y1="604" x2="1130" y2="604" stroke="#e2e8f0" stroke-width="10" stroke-linecap="round"/>
<circle cx="316.5" cy="604" r="12" fill="#2563eb"/>
<text x="260" y="634" font-size="12" fill="#64748b">33.90</text>
<text x="332.5" y="609" font-size="13" fill="#111827">34.68</text>
<text x="1090" y="634" font-size="12" fill="#64748b">45.92</text>
<text x="46" y="673" font-size="16" font-weight="700" fill="#111827">景嘉微</text>
<text x="46" y="697" font-size="13" fill="#64748b">300474 · 军工AI</text>
<line x1="260" y1="666" x2="1130" y2="666" stroke="#e2e8f0" stroke-width="10" stroke-linecap="round"/>
<circle cx="355.3" cy="666" r="12" fill="#2563eb"/>
<text x="260" y="696" font-size="12" fill="#64748b">59.00</text>
<text x="371.3" y="671" font-size="13" fill="#111827">59.71</text>
<text x="1090" y="696" font-size="12" fill="#64748b">65.48</text>
<text x="46" y="735" font-size="16" font-weight="700" fill="#111827">中无人机</text>
<text x="46" y="759" font-size="13" fill="#64748b">688297 · 无人系统</text>
<line x1="260" y1="728" x2="1130" y2="728" stroke="#e2e8f0" stroke-width="10" stroke-linecap="round"/>
<circle cx="351.3" cy="728" r="12" fill="#2563eb"/>
<text x="260" y="758" font-size="12" fill="#64748b">39.02</text>
<text x="367.3" y="733" font-size="13" fill="#111827">39.95</text>
<text x="1090" y="758" font-size="12" fill="#64748b">47.88</text>
<text x="46" y="797" font-size="16" font-weight="700" fill="#111827">航天彩虹</text>
<text x="46" y="821" font-size="13" fill="#64748b">002389 · 无人系统</text>
<line x1="260" y1="790" x2="1130" y2="790" stroke="#e2e8f0" stroke-width="10" stroke-linecap="round"/>
<circle cx="365.9" cy="790" r="12" fill="#2563eb"/>
<text x="260" y="820" font-size="12" fill="#64748b">16.57</text>
<text x="381.9" y="795" font-size="13" fill="#111827">16.90</text>
<text x="1090" y="820" font-size="12" fill="#64748b">19.28</text>
<text x="46" y="859" font-size="16" font-weight="700" fill="#111827">观典防务</text>
<text x="46" y="883" font-size="13" fill="#64748b">688287 · 无人系统</text>
<line x1="260" y1="852" x2="1130" y2="852" stroke="#e2e8f0" stroke-width="10" stroke-linecap="round"/>
<circle cx="260.0" cy="852" r="12" fill="#2563eb"/>
<text x="260" y="882" font-size="12" fill="#64748b">0.37</text>
<text x="276.0" y="857" font-size="13" fill="#111827">0.37</text>
<text x="1090" y="882" font-size="12" fill="#64748b">0.93</text>
</svg>