<svg xmlns="http://www.w3.org/2000/svg" width="1280" height="720" viewBox="0 0 1280 720">
<rect width="100%" height="100%" fill="#ffffff"/>
<text x="46" y="52" font-size="30" font-weight="800" fill="#111827">Edge AI / 端侧智能：核心标的交易结构</text>
<text x="46" y="90" font-size="16" fill="#4b5563">横轴为支撑-现价-压力的相对位置；没有完整K线时用现价/前收降级估算，需后续证据校正。</text>
<line x1="260" y1="132" x2="1130" y2="132" stroke="#cbd5e1" stroke-width="2"/>
<text x="252" y="118" font-size="14" fill="#64748b">支撑</text><text x="672" y="118" font-size="14" fill="#64748b">现价</text><text x="1112" y="118" font-size="14" fill="#64748b">压力</text>
<text x="46" y="177" font-size="16" font-weight="700" fill="#111827">工业富联</text>
<text x="46" y="201" font-size="13" fill="#64748b">601138 · AI PC/手机</text>
<line x1="260" y1="170" x2="1130" y2="170" stroke="#e2e8f0" stroke-width="10" stroke-linecap="round"/>
<circle cx="480.5" cy="170" r="12" fill="#2563eb"/>
<text x="260" y="200" font-size="12" fill="#64748b">66.01</text>
<text x="496.5" y="175" font-size="13" fill="#111827">69.53</text>
<text x="1090" y="200" font-size="12" fill="#64748b">79.90</text>
<text x="46" y="239" font-size="16" font-weight="700" fill="#111827">闻泰科技</text>
<text x="46" y="263" font-size="13" fill="#64748b">600745 · AI PC/手机</text>
<line x1="260" y1="232" x2="1130" y2="232" stroke="#e2e8f0" stroke-width="10" stroke-linecap="round"/>
<circle cx="670.2" cy="232" r="12" fill="#2563eb"/>
<text x="260" y="262" font-size="12" fill="#64748b">17.89</text>
<text x="686.2" y="237" font-size="13" fill="#111827">19.95</text>
<text x="1090" y="262" font-size="12" fill="#64748b">22.26</text>
<text x="46" y="301" font-size="16" font-weight="700" fill="#111827">传音控股</text>
<text x="46" y="325" font-size="13" fill="#64748b">688036 · AI PC/手机</text>
<line x1="260" y1="294" x2="1130" y2="294" stroke="#e2e8f0" stroke-width="10" stroke-linecap="round"/>
<circle cx="500.0" cy="294" r="12" fill="#2563eb"/>
<text x="260" y="324" font-size="12" fill="#64748b">58.90</text>
<text x="516.0" y="299" font-size="13" fill="#111827">62.40</text>
<text x="1090" y="324" font-size="12" fill="#64748b">71.58</text>
<text x="46" y="363" font-size="16" font-weight="700" fill="#111827">德赛西威</text>
<text x="46" y="387" font-size="13" fill="#64748b">002920 · 车端推理</text>
<line x1="260" y1="356" x2="1130" y2="356" stroke="#e2e8f0" stroke-width="10" stroke-linecap="round"/>
<circle cx="493.5" cy="356" r="12" fill="#2563eb"/>
<text x="260" y="386" font-size="12" fill="#64748b">76.93</text>
<text x="509.5" y="361" font-size="13" fill="#111827">80.80</text>
<text x="1090" y="386" font-size="12" fill="#64748b">91.35</text>
<text x="46" y="425" font-size="16" font-weight="700" fill="#111827">中科创达</text>
<text x="46" y="449" font-size="13" fill="#64748b">300496 · 车端推理</text>
<line x1="260" y1="418" x2="1130" y2="418" stroke="#e2e8f0" stroke-width="10" stroke-linecap="round"/>
<circle cx="368.1" cy="418" r="12" fill="#2563eb"/>
<text x="260" y="448" font-size="12" fill="#64748b">51.91</text>
<text x="384.1" y="423" font-size="13" fill="#111827">53.72</text>
<text x="1090" y="448" font-size="12" fill="#64748b">66.48</text>
<text x="46" y="487" font-size="16" font-weight="700" fill="#111827">四维图新</text>
<text x="46" y="511" font-size="13" fill="#64748b">002405 · 车端推理</text>
<line x1="260" y1="480" x2="1130" y2="480" stroke="#e2e8f0" stroke-width="10" stroke-linecap="round"/>
<circle cx="336.2" cy="480" r="12" fill="#2563eb"/>
<text x="260" y="510" font-size="12" fill="#64748b">6.10</text>
<text x="352.2" y="485" font-size="13" fill="#111827">6.22</text>
<text x="1090" y="510" font-size="12" fill="#64748b">7.47</text>
<text x="46" y="549" font-size="16" font-weight="700" fill="#111827">瑞芯微</text>
<text x="46" y="573" font-size="13" fill="#64748b">603893 · NPU/SoC</text>
<line x1="260" y1="542" x2="1130" y2="542" stroke="#e2e8f0" stroke-width="10" stroke-linecap="round"/>
<circle cx="900.4" cy="542" r="12" fill="#2563eb"/>
<text x="260" y="572" font-size="12" fill="#64748b">188.77</text>
<text x="916.4" y="547" font-size="13" fill="#111827">216.91</text>
<text x="1090" y="572" font-size="12" fill="#64748b">227.00</text>
<text x="46" y="611" font-size="16" font-weight="700" fill="#111827">全志科技</text>
<text x="46" y="635" font-size="13" fill="#64748b">300458 · NPU/SoC</text>
<line x1="260" y1="604" x2="1130" y2="604" stroke="#e2e8f0" stroke-width="10" stroke-linecap="round"/>
<circle cx="407.8" cy="604" r="12" fill="#2563eb"/>
<text x="260" y="634" font-size="12" fill="#64748b">37.89</text>
<text x="423.8" y="609" font-size="13" fill="#111827">38.78</text>
<text x="1090" y="634" font-size="12" fill="#64748b">43.13</text>
<text x="46" y="673" font-size="16" font-weight="700" fill="#111827">龙芯中科</text>
<text x="46" y="697" font-size="13" fill="#64748b">688047 · NPU/SoC</text>
<line x1="260" y1="666" x2="1130" y2="666" stroke="#e2e8f0" stroke-width="10" stroke-linecap="round"/>
<circle cx="599.0" cy="666" r="12" fill="#2563eb"/>
<text x="260" y="696" font-size="12" fill="#64748b">144.34</text>
<text x="615.0" y="671" font-size="13" fill="#111827">149.91</text>
<text x="1090" y="696" font-size="12" fill="#64748b">158.63</text>
<text x="46" y="735" font-size="16" font-weight="700" fill="#111827">科大讯飞</text>
<text x="46" y="759" font-size="13" fill="#64748b">002230 · 端侧模型部署</text>
<line x1="260" y1="728" x2="1130" y2="728" stroke="#e2e8f0" stroke-width="10" stroke-linecap="round"/>
<circle cx="593.2" cy="728" r="12" fill="#2563eb"/>
<text x="260" y="758" font-size="12" fill="#64748b">39.07</text>
<text x="609.2" y="733" font-size="13" fill="#111827">41.18</text>
<text x="1090" y="758" font-size="12" fill="#64748b">44.58</text>
<text x="46" y="797" font-size="16" font-weight="700" fill="#111827">紫光股份</text>
<text x="46" y="821" font-size="13" fill="#64748b">000938 · 端侧模型部署</text>
<line x1="260" y1="790" x2="1130" y2="790" stroke="#e2e8f0" stroke-width="10" stroke-linecap="round"/>
<circle cx="836.2" cy="790" r="12" fill="#2563eb"/>
<text x="260" y="820" font-size="12" fill="#64748b">30.51</text>
<text x="852.2" y="795" font-size="13" fill="#111827">36.98</text>
<text x="1090" y="820" font-size="12" fill="#64748b">40.28</text>
<text x="46" y="859" font-size="16" font-weight="700" fill="#111827">中科创达</text>
<text x="46" y="883" font-size="13" fill="#64748b">300496 · 端侧模型部署</text>
<line x1="260" y1="852" x2="1130" y2="852" stroke="#e2e8f0" stroke-width="10" stroke-linecap="round"/>
<circle cx="368.1" cy="852" r="12" fill="#2563eb"/>
<text x="260" y="882" font-size="12" fill="#64748b">51.91</text>
<text x="384.1" y="857" font-size="13" fill="#111827">53.72</text>
<text x="1090" y="882" font-size="12" fill="#64748b">66.48</text>
</svg>