<svg xmlns="http://www.w3.org/2000/svg" width="1280" height="720" viewBox="0 0 1280 720">
<rect width="100%" height="100%" fill="#ffffff"/>
<text x="46" y="52" font-size="30" font-weight="800" fill="#111827">区块链 / AI 代理支付：核心标的交易结构</text>
<text x="46" y="90" font-size="16" fill="#4b5563">横轴为支撑-现价-压力的相对位置；没有完整K线时用现价/前收降级估算，需后续证据校正。</text>
<line x1="260" y1="132" x2="1130" y2="132" stroke="#cbd5e1" stroke-width="2"/>
<text x="252" y="118" font-size="14" fill="#64748b">支撑</text><text x="672" y="118" font-size="14" fill="#64748b">现价</text><text x="1112" y="118" font-size="14" fill="#64748b">压力</text>
<text x="46" y="177" font-size="16" font-weight="700" fill="#111827">拉卡拉</text>
<text x="46" y="201" font-size="13" fill="#64748b">300773 · 稳定币/支付</text>
<line x1="260" y1="170" x2="1130" y2="170" stroke="#e2e8f0" stroke-width="10" stroke-linecap="round"/>
<circle cx="262.4" cy="170" r="12" fill="#2563eb"/>
<text x="260" y="200" font-size="12" fill="#64748b">14.30</text>
<text x="278.4" y="175" font-size="13" fill="#111827">14.33</text>
<text x="1090" y="200" font-size="12" fill="#64748b">24.99</text>
<text x="46" y="239" font-size="16" font-weight="700" fill="#111827">新大陆</text>
<text x="46" y="263" font-size="13" fill="#64748b">000997 · 稳定币/支付</text>
<line x1="260" y1="232" x2="1130" y2="232" stroke="#e2e8f0" stroke-width="10" stroke-linecap="round"/>
<circle cx="368.7" cy="232" r="12" fill="#2563eb"/>
<text x="260" y="262" font-size="12" fill="#64748b">15.16</text>
<text x="384.7" y="237" font-size="13" fill="#111827">15.61</text>
<text x="1090" y="262" font-size="12" fill="#64748b">18.76</text>
<text x="46" y="301" font-size="16" font-weight="700" fill="#111827">新国都</text>
<text x="46" y="325" font-size="13" fill="#64748b">300130 · 稳定币/支付</text>
<line x1="260" y1="294" x2="1130" y2="294" stroke="#e2e8f0" stroke-width="10" stroke-linecap="round"/>
<circle cx="319.8" cy="294" r="12" fill="#2563eb"/>
<text x="260" y="324" font-size="12" fill="#64748b">16.41</text>
<text x="335.8" y="299" font-size="13" fill="#111827">16.96</text>
<text x="1090" y="324" font-size="12" fill="#64748b">24.41</text>
<text x="46" y="363" font-size="16" font-weight="700" fill="#111827">四方精创</text>
<text x="46" y="387" font-size="13" fill="#64748b">300468 · Agent支付</text>
<line x1="260" y1="356" x2="1130" y2="356" stroke="#e2e8f0" stroke-width="10" stroke-linecap="round"/>
<circle cx="331.3" cy="356" r="12" fill="#2563eb"/>
<text x="260" y="386" font-size="12" fill="#64748b">18.45</text>
<text x="347.3" y="361" font-size="13" fill="#111827">19.01</text>
<text x="1090" y="386" font-size="12" fill="#64748b">25.28</text>
<text x="46" y="425" font-size="16" font-weight="700" fill="#111827">恒宝股份</text>
<text x="46" y="449" font-size="13" fill="#64748b">002104 · Agent支付</text>
<line x1="260" y1="418" x2="1130" y2="418" stroke="#e2e8f0" stroke-width="10" stroke-linecap="round"/>
<circle cx="267.0" cy="418" r="12" fill="#2563eb"/>
<text x="260" y="448" font-size="12" fill="#64748b">9.50</text>
<text x="283.0" y="423" font-size="13" fill="#111827">9.52</text>
<text x="1090" y="448" font-size="12" fill="#64748b">11.98</text>
<text x="46" y="487" font-size="16" font-weight="700" fill="#111827">新大陆</text>
<text x="46" y="511" font-size="13" fill="#64748b">000997 · Agent支付</text>
<line x1="260" y1="480" x2="1130" y2="480" stroke="#e2e8f0" stroke-width="10" stroke-linecap="round"/>
<circle cx="368.7" cy="480" r="12" fill="#2563eb"/>
<text x="260" y="510" font-size="12" fill="#64748b">15.16</text>
<text x="384.7" y="485" font-size="13" fill="#111827">15.61</text>
<text x="1090" y="510" font-size="12" fill="#64748b">18.76</text>
<text x="46" y="549" font-size="16" font-weight="700" fill="#111827">数字认证</text>
<text x="46" y="573" font-size="13" fill="#64748b">300579 · 链上身份</text>
<line x1="260" y1="542" x2="1130" y2="542" stroke="#e2e8f0" stroke-width="10" stroke-linecap="round"/>
<circle cx="439.5" cy="542" r="12" fill="#2563eb"/>
<text x="260" y="572" font-size="12" fill="#64748b">19.38</text>
<text x="455.5" y="547" font-size="13" fill="#111827">20.43</text>
<text x="1090" y="572" font-size="12" fill="#64748b">24.47</text>
<text x="46" y="611" font-size="16" font-weight="700" fill="#111827">格尔软件</text>
<text x="46" y="635" font-size="13" fill="#64748b">603232 · 链上身份</text>
<line x1="260" y1="604" x2="1130" y2="604" stroke="#e2e8f0" stroke-width="10" stroke-linecap="round"/>
<circle cx="379.5" cy="604" r="12" fill="#2563eb"/>
<text x="260" y="634" font-size="12" fill="#64748b">13.55</text>
<text x="395.5" y="609" font-size="13" fill="#111827">14.12</text>
<text x="1090" y="634" font-size="12" fill="#64748b">17.70</text>
<text x="46" y="673" font-size="16" font-weight="700" fill="#111827">吉大正元</text>
<text x="46" y="697" font-size="13" fill="#64748b">003029 · 链上身份</text>
<line x1="260" y1="666" x2="1130" y2="666" stroke="#e2e8f0" stroke-width="10" stroke-linecap="round"/>
<circle cx="266.9" cy="666" r="12" fill="#2563eb"/>
<text x="260" y="696" font-size="12" fill="#64748b">15.59</text>
<text x="282.9" y="671" font-size="13" fill="#111827">15.61</text>
<text x="1090" y="696" font-size="12" fill="#64748b">18.10</text>
<text x="46" y="735" font-size="16" font-weight="700" fill="#111827">恒生电子</text>
<text x="46" y="759" font-size="13" fill="#64748b">600570 · 清结算基础设施</text>
<line x1="260" y1="728" x2="1130" y2="728" stroke="#e2e8f0" stroke-width="10" stroke-linecap="round"/>
<circle cx="353.0" cy="728" r="12" fill="#2563eb"/>
<text x="260" y="758" font-size="12" fill="#64748b">20.06</text>
<text x="369.0" y="733" font-size="13" fill="#111827">20.51</text>
<text x="1090" y="758" font-size="12" fill="#64748b">24.27</text>
<text x="46" y="797" font-size="16" font-weight="700" fill="#111827">四方精创</text>
<text x="46" y="821" font-size="13" fill="#64748b">300468 · 清结算基础设施</text>
<line x1="260" y1="790" x2="1130" y2="790" stroke="#e2e8f0" stroke-width="10" stroke-linecap="round"/>
<circle cx="331.3" cy="790" r="12" fill="#2563eb"/>
<text x="260" y="820" font-size="12" fill="#64748b">18.45</text>
<text x="347.3" y="795" font-size="13" fill="#111827">19.01</text>
<text x="1090" y="820" font-size="12" fill="#64748b">25.28</text>
<text x="46" y="859" font-size="16" font-weight="700" fill="#111827">宇信科技</text>
<text x="46" y="883" font-size="13" fill="#64748b">300674 · 清结算基础设施</text>
<line x1="260" y1="852" x2="1130" y2="852" stroke="#e2e8f0" stroke-width="10" stroke-linecap="round"/>
<circle cx="322.7" cy="852" r="12" fill="#2563eb"/>
<text x="260" y="882" font-size="12" fill="#64748b">14.12</text>
<text x="338.7" y="857" font-size="13" fill="#111827">14.36</text>
<text x="1090" y="882" font-size="12" fill="#64748b">17.45</text>
</svg>