<svg xmlns="http://www.w3.org/2000/svg" width="1100" height="640" viewBox="0 0 1100 640">
<rect width="100%" height="100%" fill="#ffffff"/>
<text x="75" y="32" font-size="22" font-weight="800" fill="#111827">秦川机床 000837 90日趋势/支撑压力</text>
<line x1="75" y1="55.0" x2="1070" y2="55.0" stroke="#e5e7eb"/>
<text x="18" y="60.0" font-size="14" fill="#4b5563">13.2</text>
<line x1="75" y1="187.5" x2="1070" y2="187.5" stroke="#e5e7eb"/>
<text x="18" y="192.5" font-size="14" fill="#4b5563">12.4</text>
<line x1="75" y1="320.0" x2="1070" y2="320.0" stroke="#e5e7eb"/>
<text x="18" y="325.0" font-size="14" fill="#4b5563">11.6</text>
<line x1="75" y1="452.5" x2="1070" y2="452.5" stroke="#e5e7eb"/>
<text x="18" y="457.5" font-size="14" fill="#4b5563">10.8</text>
<line x1="75" y1="585.0" x2="1070" y2="585.0" stroke="#e5e7eb"/>
<text x="18" y="590.0" font-size="14" fill="#4b5563">10.0</text>
<line x1="75" y1="585.0" x2="1070" y2="585.0" stroke="#16a34a" stroke-width="1.8" stroke-dasharray="8 7"/>
<text x="988" y="578.0" font-size="13" font-weight="700" fill="#16a34a">S1 10.01</text>
<line x1="75" y1="585.0" x2="1070" y2="585.0" stroke="#15803d" stroke-width="1.8" stroke-dasharray="8 7"/>
<text x="988" y="578.0" font-size="13" font-weight="700" fill="#15803d">S2 10.01</text>
<line x1="75" y1="380.5" x2="1070" y2="380.5" stroke="#dc2626" stroke-width="1.8" stroke-dasharray="8 7"/>
<text x="988" y="373.5" font-size="13" font-weight="700" fill="#dc2626">R1 11.26</text>
<line x1="75" y1="359.3" x2="1070" y2="359.3" stroke="#991b1b" stroke-width="1.8" stroke-dasharray="8 7"/>
<text x="988" y="352.3" font-size="13" font-weight="700" fill="#991b1b">R2 11.39</text>
<polyline fill="none" stroke="#2563eb" stroke-width="3" points="75.0,182.6 86.2,215.3 97.4,339.6 108.5,356.0 119.7,297.1 130.9,282.4 142.1,303.6 153.3,272.6 164.4,166.2 175.6,187.5 186.8,238.2 198.0,266.0 209.2,311.8 220.3,303.6 231.5,375.6 242.7,447.6 253.9,544.1 265.1,514.7 276.2,481.9 287.4,493.4 298.6,493.4 309.8,491.8 321.0,499.9 332.1,477.0 343.3,519.6 354.5,568.6 365.7,544.1 376.9,455.8 388.0,488.5 399.2,467.2 410.4,459.0 421.6,429.6 432.8,447.6 443.9,437.8 455.1,423.1 466.3,419.8 477.5,431.2 488.7,428.0 499.8,460.7 511.0,470.5 522.2,441.0 533.4,475.4 544.6,431.2 555.7,405.1 566.9,398.5 578.1,331.5 589.3,292.2 600.4,295.5 611.6,223.5 622.8,238.2 634.0,280.7 645.2,202.2 656.3,207.1 667.5,133.5 678.7,195.7 689.9,148.2 701.1,153.1 712.2,184.2 723.4,174.4 734.6,251.3 745.8,234.9 757.0,324.9 768.1,349.4 779.3,365.8 790.5,352.7 801.7,346.2 812.9,256.2 824.0,149.9 835.2,55.0 846.4,169.5 857.6,216.9 868.8,226.8 879.9,202.2 891.1,181.0 902.3,254.6 913.5,226.8 924.7,300.4 935.8,270.9 947.0,328.2 958.2,413.2 969.4,464.0 980.6,503.2 991.7,405.1 1002.9,357.6 1014.1,272.6 1025.3,189.1 1036.5,292.2 1047.6,357.6 1058.8,473.8 1070.0,485.2"/>
<polyline fill="none" stroke="#f59e0b" stroke-width="2" points="287.4,329.0 298.6,344.5 309.8,358.4 321.0,366.4 332.1,372.4 343.3,383.6 354.5,397.9 365.7,409.9 376.9,419.0 388.0,435.2 399.2,449.1 410.4,460.2 421.6,468.4 432.8,475.2 443.9,481.9 455.1,484.2 466.3,482.8 477.5,477.2 488.7,472.9 499.8,471.8 511.0,470.7 522.2,468.0 533.4,467.2 544.6,463.8 555.7,460.2 566.9,454.1 578.1,442.3 589.3,429.7 600.4,421.7 611.6,408.4 622.8,397.0 634.0,388.0 645.2,376.7 656.3,364.7 667.5,349.4 678.7,338.1 689.9,324.5 701.1,310.6 712.2,298.4 723.4,284.1 734.6,273.1 745.8,262.8 757.0,255.3 768.1,251.2 779.3,249.3 790.5,247.0 801.7,247.7 812.9,245.9 824.0,238.6 835.2,230.2 846.4,226.8 857.6,223.6 868.8,224.8 879.9,224.6 891.1,226.9 902.3,229.9 913.5,233.8 924.7,241.2 935.8,245.5 947.0,253.2 958.2,261.3 969.4,272.7 980.6,281.6 991.7,284.4 1002.9,284.0 1014.1,280.0 1025.3,272.2 1036.5,274.0 1047.6,284.3 1058.8,305.3 1070.0,321.1"/>
<polyline fill="none" stroke="#7c3aed" stroke-width="2" points="734.6,357.6 745.8,358.5 757.0,360.3 768.1,360.5 779.3,360.6 790.5,361.5 801.7,362.6 812.9,361.8 824.0,359.8 835.2,357.9 846.4,357.6 857.6,357.3 868.8,356.6 879.9,354.8 891.1,352.7 902.3,350.7 913.5,347.0 924.7,343.0 935.8,338.9 947.0,336.4 958.2,335.0 969.4,334.5 980.6,334.7 991.7,333.1 1002.9,331.2 1014.1,327.0 1025.3,320.7 1036.5,316.5 1047.6,314.9 1058.8,314.6 1070.0,314.9"/>
<text x="75" y="622" font-size="14" fill="#374151">2026-02-27</text>
<text x="970" y="622" font-size="14" fill="#374151">2026-07-09</text>
<text x="880" y="32" font-size="15" fill="#111827">最新 10.62</text>
<text x="320" y="32" font-size="14" fill="#2563eb">收盘</text>
<text x="375" y="32" font-size="14" fill="#f59e0b">MA20</text>
<text x="440" y="32" font-size="14" fill="#7c3aed">MA60</text>
</svg>