<svg xmlns="http://www.w3.org/2000/svg" width="1100" height="640" viewBox="0 0 1100 640">
<rect width="100%" height="100%" fill="#ffffff"/>
<text x="75" y="32" font-size="22" font-weight="800" fill="#111827">双环传动 002472 90日趋势/支撑压力</text>
<line x1="75" y1="55.0" x2="1070" y2="55.0" stroke="#e5e7eb"/>
<text x="18" y="60.0" font-size="14" fill="#4b5563">49.4</text>
<line x1="75" y1="187.5" x2="1070" y2="187.5" stroke="#e5e7eb"/>
<text x="18" y="192.5" font-size="14" fill="#4b5563">45.8</text>
<line x1="75" y1="320.0" x2="1070" y2="320.0" stroke="#e5e7eb"/>
<text x="18" y="325.0" font-size="14" fill="#4b5563">42.1</text>
<line x1="75" y1="452.5" x2="1070" y2="452.5" stroke="#e5e7eb"/>
<text x="18" y="457.5" font-size="14" fill="#4b5563">38.5</text>
<line x1="75" y1="585.0" x2="1070" y2="585.0" stroke="#e5e7eb"/>
<text x="18" y="590.0" font-size="14" fill="#4b5563">34.8</text>
<line x1="75" y1="310.2" x2="1070" y2="310.2" stroke="#16a34a" stroke-width="1.8" stroke-dasharray="8 7"/>
<text x="988" y="303.2" font-size="13" font-weight="700" fill="#16a34a">S1 42.38</text>
<line x1="75" y1="331.6" x2="1070" y2="331.6" stroke="#15803d" stroke-width="1.8" stroke-dasharray="8 7"/>
<text x="988" y="324.6" font-size="13" font-weight="700" fill="#15803d">S2 41.79</text>
<line x1="75" y1="227.6" x2="1070" y2="227.6" stroke="#dc2626" stroke-width="1.8" stroke-dasharray="8 7"/>
<text x="988" y="220.6" font-size="13" font-weight="700" fill="#dc2626">R1 44.66</text>
<line x1="75" y1="55.0" x2="1070" y2="55.0" stroke="#991b1b" stroke-width="1.8" stroke-dasharray="8 7"/>
<text x="988" y="48.0" font-size="13" font-weight="700" fill="#991b1b">R2 49.42</text>
<polyline fill="none" stroke="#2563eb" stroke-width="3" points="75.0,355.2 86.2,387.8 97.4,467.5 108.5,467.9 119.7,461.0 130.9,436.7 142.1,457.0 153.3,422.6 164.4,421.5 175.6,447.6 186.8,471.9 198.0,447.2 209.2,441.1 220.3,448.3 231.5,462.1 242.7,462.1 253.9,506.0 265.1,535.3 276.2,527.4 287.4,541.9 298.6,530.6 309.8,554.2 321.0,551.3 332.1,525.9 343.3,555.3 354.5,581.4 365.7,585.0 376.9,510.7 388.0,513.9 399.2,474.1 410.4,480.6 421.6,466.5 432.8,464.6 443.9,450.5 455.1,436.0 466.3,440.0 477.5,446.5 488.7,446.2 499.8,478.1 511.0,528.8 522.2,461.7 533.4,469.4 544.6,468.3 555.7,433.1 566.9,413.5 578.1,384.5 589.3,317.8 600.4,318.5 611.6,322.2 622.8,325.8 634.0,380.2 645.2,316.0 656.3,257.6 667.5,261.3 678.7,295.0 689.9,245.0 701.1,247.1 712.2,275.0 723.4,235.5 734.6,316.0 745.8,356.3 757.0,434.6 768.1,450.9 779.3,407.4 790.5,397.9 801.7,356.3 812.9,303.0 824.0,224.3 835.2,230.1 846.4,309.1 857.6,367.5 868.8,370.4 879.9,304.8 891.1,322.9 902.3,342.8 913.5,269.6 924.7,330.2 935.8,386.3 947.0,404.8 958.2,427.7 969.4,510.0 980.6,488.6 991.7,351.9 1002.9,308.8 1014.1,307.3 1025.3,152.5 1036.5,151.8 1047.6,216.3 1058.8,311.7 1070.0,305.1"/>
<polyline fill="none" stroke="#f59e0b" stroke-width="2" points="287.4,458.4 298.6,467.2 309.8,475.5 321.0,479.7 332.1,482.6 343.3,487.3 354.5,494.5 365.7,500.9 376.9,505.3 388.0,510.0 399.2,511.3 410.4,511.7 421.6,512.7 432.8,513.9 443.9,514.0 455.1,512.7 466.3,511.6 477.5,508.6 488.7,504.1 499.8,501.7 511.0,501.0 522.2,497.6 533.4,493.3 544.6,489.2 555.7,484.5 566.9,477.4 578.1,467.6 589.3,454.2 600.4,444.6 611.6,435.0 622.8,427.6 634.0,422.6 645.2,415.1 656.3,404.7 667.5,395.3 678.7,388.2 689.9,378.5 701.1,368.5 712.2,359.9 723.4,347.8 734.6,337.2 745.8,331.9 757.0,330.2 768.1,329.3 779.3,328.0 790.5,327.2 801.7,325.8 812.9,325.1 824.0,320.4 835.2,315.8 846.4,314.9 857.6,314.3 868.8,317.0 879.9,319.4 891.1,322.4 902.3,324.8 913.5,326.1 924.7,330.2 935.8,335.8 947.0,344.3 958.2,349.8 969.4,357.5 980.6,360.2 991.7,355.3 1002.9,350.3 1014.1,345.8 1025.3,335.6 1036.5,328.1 1047.6,327.7 1058.8,331.7 1070.0,331.5"/>
<polyline fill="none" stroke="#7c3aed" stroke-width="2" points="734.6,432.2 745.8,432.2 757.0,433.0 768.1,432.7 779.3,431.7 790.5,430.7 801.7,429.3 812.9,426.7 824.0,423.4 835.2,420.3 846.4,417.9 857.6,416.2 868.8,414.9 879.9,412.7 891.1,410.6 902.3,408.6 913.5,405.4 924.7,402.4 935.8,400.0 947.0,397.9 958.2,396.0 969.4,395.7 980.6,394.6 991.7,391.2 1002.9,387.6 1014.1,383.5 1025.3,376.3 1036.5,369.1 1047.6,364.2 1058.8,360.8 1070.0,358.0"/>
<text x="75" y="622" font-size="14" fill="#374151">2026-02-27</text>
<text x="970" y="622" font-size="14" fill="#374151">2026-07-09</text>
<text x="880" y="32" font-size="15" fill="#111827">最新 42.52</text>
<text x="320" y="32" font-size="14" fill="#2563eb">收盘</text>
<text x="375" y="32" font-size="14" fill="#f59e0b">MA20</text>
<text x="440" y="32" font-size="14" fill="#7c3aed">MA60</text>
</svg>