<svg xmlns="http://www.w3.org/2000/svg" width="1100" height="640" viewBox="0 0 1100 640">
<rect width="100%" height="100%" fill="#ffffff"/>
<text x="75" y="32" font-size="22" font-weight="800" fill="#111827">中大力德 002896 90日趋势/支撑压力</text>
<line x1="75" y1="55.0" x2="1070" y2="55.0" stroke="#e5e7eb"/>
<text x="18" y="60.0" font-size="14" fill="#4b5563">95.1</text>
<line x1="75" y1="187.5" x2="1070" y2="187.5" stroke="#e5e7eb"/>
<text x="18" y="192.5" font-size="14" fill="#4b5563">88.1</text>
<line x1="75" y1="320.0" x2="1070" y2="320.0" stroke="#e5e7eb"/>
<text x="18" y="325.0" font-size="14" fill="#4b5563">81.2</text>
<line x1="75" y1="452.5" x2="1070" y2="452.5" stroke="#e5e7eb"/>
<text x="18" y="457.5" font-size="14" fill="#4b5563">74.2</text>
<line x1="75" y1="585.0" x2="1070" y2="585.0" stroke="#e5e7eb"/>
<text x="18" y="590.0" font-size="14" fill="#4b5563">67.3</text>
<line x1="75" y1="577.0" x2="1070" y2="577.0" stroke="#16a34a" stroke-width="1.8" stroke-dasharray="8 7"/>
<text x="988" y="570.0" font-size="13" font-weight="700" fill="#16a34a">S1 67.71</text>
<line x1="75" y1="585.0" x2="1070" y2="585.0" stroke="#15803d" stroke-width="1.8" stroke-dasharray="8 7"/>
<text x="988" y="578.0" font-size="13" font-weight="700" fill="#15803d">S2 67.29</text>
<line x1="75" y1="402.1" x2="1070" y2="402.1" stroke="#dc2626" stroke-width="1.8" stroke-dasharray="8 7"/>
<text x="988" y="395.1" font-size="13" font-weight="700" fill="#dc2626">R1 76.88</text>
<line x1="75" y1="384.9" x2="1070" y2="384.9" stroke="#991b1b" stroke-width="1.8" stroke-dasharray="8 7"/>
<text x="988" y="377.9" font-size="13" font-weight="700" fill="#991b1b">R2 77.78</text>
<polyline fill="none" stroke="#2563eb" stroke-width="3" points="75.0,273.2 86.2,337.1 97.4,387.4 108.5,399.1 119.7,391.6 130.9,389.1 142.1,427.3 153.3,368.7 164.4,335.4 175.6,369.7 186.8,403.8 198.0,415.1 209.2,447.9 220.3,442.7 231.5,493.6 242.7,535.6 253.9,402.1 265.1,450.9 276.2,450.9 287.4,377.5 298.6,400.2 309.8,430.3 321.0,441.2 332.1,430.7 343.3,488.9 354.5,515.4 365.7,519.2 376.9,454.7 388.0,497.5 399.2,461.4 410.4,456.6 421.6,438.3 432.8,460.1 443.9,462.6 455.1,448.1 466.3,480.7 477.5,486.0 488.7,492.3 499.8,514.6 511.0,511.0 522.2,509.7 533.4,571.5 544.6,567.8 555.7,530.3 566.9,518.4 578.1,474.6 589.3,421.2 600.4,429.6 611.6,337.3 622.8,371.0 634.0,391.4 645.2,333.4 656.3,330.0 667.5,351.6 678.7,407.3 689.9,346.2 701.1,338.0 712.2,315.7 723.4,160.3 734.6,228.4 745.8,302.2 757.0,424.6 768.1,454.2 779.3,312.5 790.5,365.9 801.7,366.2 812.9,215.8 824.0,55.0 835.2,141.0 846.4,142.3 857.6,315.1 868.8,377.7 879.9,337.1 891.1,335.2 902.3,350.8 913.5,301.0 924.7,351.2 935.8,358.4 947.0,404.6 958.2,477.6 969.4,529.9 980.6,502.0 991.7,413.9 1002.9,414.3 1014.1,386.1 1025.3,237.7 1036.5,268.2 1047.6,355.8 1058.8,467.1 1070.0,445.6"/>
<polyline fill="none" stroke="#f59e0b" stroke-width="2" points="287.4,404.9 298.6,411.3 309.8,415.9 321.0,418.6 332.1,420.2 343.3,425.1 354.5,431.4 365.7,436.0 376.9,440.3 388.0,448.4 399.2,453.0 410.4,455.6 421.6,456.8 432.8,457.4 443.9,458.4 455.1,456.1 466.3,453.4 477.5,457.6 488.7,459.6 499.8,462.8 511.0,469.5 522.2,475.0 533.4,482.0 544.6,488.4 555.7,493.3 566.9,494.8 578.1,492.8 589.3,487.9 600.4,486.6 611.6,478.6 622.8,474.1 634.0,470.8 645.2,465.6 656.3,459.1 667.5,453.5 678.7,451.5 689.9,444.8 701.1,437.4 712.2,428.5 723.4,410.8 734.6,396.7 745.8,386.3 757.0,379.0 768.1,373.3 779.3,362.4 790.5,354.8 801.7,349.3 812.9,339.1 824.0,320.3 835.2,310.5 846.4,299.1 857.6,295.3 868.8,297.5 879.9,297.8 891.1,297.0 902.3,294.2 913.5,291.9 924.7,292.6 935.8,294.7 947.0,307.0 958.2,319.4 969.4,330.8 980.6,334.7 991.7,332.7 1002.9,337.8 1014.1,338.8 1025.3,332.3 1036.5,335.0 1047.6,350.0 1058.8,366.3 1070.0,381.5"/>
<polyline fill="none" stroke="#7c3aed" stroke-width="2" points="734.6,423.7 745.8,424.2 757.0,425.6 768.1,426.8 779.3,425.3 790.5,424.9 801.7,424.5 812.9,421.0 824.0,415.7 835.2,412.5 846.4,408.7 857.6,407.2 868.8,406.6 879.9,404.8 891.1,403.0 902.3,400.6 913.5,396.7 924.7,395.8 935.8,394.3 947.0,393.5 958.2,395.2 969.4,397.4 980.6,398.6 991.7,398.1 1002.9,397.8 1014.1,396.1 1025.3,391.5 1036.5,387.3 1047.6,385.7 1058.8,385.1 1070.0,384.9"/>
<text x="75" y="622" font-size="14" fill="#374151">2026-02-27</text>
<text x="970" y="622" font-size="14" fill="#374151">2026-07-09</text>
<text x="880" y="32" font-size="15" fill="#111827">最新 74.60</text>
<text x="320" y="32" font-size="14" fill="#2563eb">收盘</text>
<text x="375" y="32" font-size="14" fill="#f59e0b">MA20</text>
<text x="440" y="32" font-size="14" fill="#7c3aed">MA60</text>
</svg>