<svg xmlns="http://www.w3.org/2000/svg" width="1100" height="640" viewBox="0 0 1100 640">
<rect width="100%" height="100%" fill="#ffffff"/>
<text x="75" y="32" font-size="22" font-weight="800" fill="#111827">雷赛智能 002979 90日趋势/支撑压力</text>
<line x1="75" y1="55.0" x2="1070" y2="55.0" stroke="#e5e7eb"/>
<text x="18" y="60.0" font-size="14" fill="#4b5563">76.5</text>
<line x1="75" y1="187.5" x2="1070" y2="187.5" stroke="#e5e7eb"/>
<text x="18" y="192.5" font-size="14" fill="#4b5563">66.1</text>
<line x1="75" y1="320.0" x2="1070" y2="320.0" stroke="#e5e7eb"/>
<text x="18" y="325.0" font-size="14" fill="#4b5563">55.7</text>
<line x1="75" y1="452.5" x2="1070" y2="452.5" stroke="#e5e7eb"/>
<text x="18" y="457.5" font-size="14" fill="#4b5563">45.3</text>
<line x1="75" y1="585.0" x2="1070" y2="585.0" stroke="#e5e7eb"/>
<text x="18" y="590.0" font-size="14" fill="#4b5563">34.9</text>
<line x1="75" y1="237.6" x2="1070" y2="237.6" stroke="#16a34a" stroke-width="1.8" stroke-dasharray="8 7"/>
<text x="988" y="230.6" font-size="13" font-weight="700" fill="#16a34a">S1 62.16</text>
<line x1="75" y1="295.9" x2="1070" y2="295.9" stroke="#15803d" stroke-width="1.8" stroke-dasharray="8 7"/>
<text x="988" y="288.9" font-size="13" font-weight="700" fill="#15803d">S2 57.58</text>
<line x1="75" y1="159.8" x2="1070" y2="159.8" stroke="#dc2626" stroke-width="1.8" stroke-dasharray="8 7"/>
<text x="988" y="152.8" font-size="13" font-weight="700" fill="#dc2626">R1 68.28</text>
<line x1="75" y1="55.0" x2="1070" y2="55.0" stroke="#991b1b" stroke-width="1.8" stroke-dasharray="8 7"/>
<text x="988" y="48.0" font-size="13" font-weight="700" fill="#991b1b">R2 76.51</text>
<polyline fill="none" stroke="#2563eb" stroke-width="3" points="75.0,526.7 86.2,546.6 97.4,565.3 108.5,566.8 119.7,538.2 130.9,546.4 142.1,550.5 153.3,538.2 164.4,537.8 175.6,546.8 186.8,538.4 198.0,546.1 209.2,554.2 220.3,549.9 231.5,561.7 242.7,576.0 253.9,585.0 265.1,578.4 276.2,576.0 287.4,574.6 298.6,574.8 309.8,579.4 321.0,575.7 332.1,564.3 343.3,565.0 354.5,557.1 365.7,563.2 376.9,541.5 388.0,549.2 399.2,529.3 410.4,528.6 421.6,521.6 432.8,529.8 443.9,524.2 455.1,521.1 466.3,523.9 477.5,513.7 488.7,504.3 499.8,496.2 511.0,490.8 522.2,462.8 533.4,482.9 544.6,475.5 555.7,470.3 566.9,463.8 578.1,455.9 589.3,398.7 600.4,342.7 611.6,346.5 622.8,354.7 634.0,336.9 645.2,267.7 656.3,200.4 667.5,183.8 678.7,225.0 689.9,229.4 701.1,252.0 712.2,251.1 723.4,274.8 734.6,311.6 745.8,303.5 757.0,334.9 768.1,369.6 779.3,375.6 790.5,360.6 801.7,352.2 812.9,320.0 824.0,332.6 835.2,330.6 846.4,360.3 857.6,378.3 868.8,385.9 879.9,374.7 891.1,354.9 902.3,316.6 913.5,324.6 924.7,348.8 935.8,342.9 947.0,352.5 958.2,362.8 969.4,371.4 980.6,366.2 991.7,318.9 1002.9,297.2 1014.1,224.0 1025.3,143.6 1036.5,96.2 1047.6,146.8 1058.8,212.7 1070.0,199.7"/>
<polyline fill="none" stroke="#f59e0b" stroke-width="2" points="287.4,555.2 298.6,557.6 309.8,559.2 321.0,559.7 332.1,559.6 343.3,561.0 354.5,561.5 365.7,562.1 376.9,562.3 388.0,562.9 399.2,562.0 410.4,561.5 421.6,560.3 432.8,559.0 443.9,557.8 455.1,555.7 466.3,553.1 477.5,549.6 488.7,545.9 499.8,541.9 511.0,537.7 522.2,532.1 533.4,527.3 544.6,522.3 555.7,517.6 566.9,512.5 578.1,507.4 589.3,499.2 600.4,489.3 611.6,479.1 622.8,470.4 634.0,460.8 645.2,448.1 656.3,431.7 667.5,414.6 678.7,399.8 689.9,385.1 701.1,372.0 712.2,359.4 723.4,348.3 734.6,339.3 745.8,331.4 757.0,324.0 768.1,318.7 779.3,313.9 790.5,308.8 801.7,303.6 812.9,299.7 824.0,299.2 835.2,298.4 846.4,298.6 857.6,300.7 868.8,306.6 879.9,315.3 891.1,323.9 902.3,328.5 913.5,333.2 924.7,338.1 935.8,342.6 947.0,346.5 958.2,349.1 969.4,352.5 980.6,354.1 991.7,351.5 1002.9,347.6 1014.1,340.8 1025.3,330.3 1036.5,319.1 1047.6,309.9 1058.8,304.0 1070.0,295.9"/>
<polyline fill="none" stroke="#7c3aed" stroke-width="2" points="734.6,477.4 745.8,473.7 757.0,470.1 768.1,466.9 779.3,463.7 790.5,460.7 801.7,457.5 812.9,453.7 824.0,450.2 835.2,446.8 846.4,443.7 857.6,441.0 868.8,438.3 879.9,435.3 891.1,432.1 902.3,428.0 913.5,423.8 924.7,419.9 935.8,416.0 947.0,412.2 958.2,408.7 969.4,405.3 980.6,401.8 991.7,397.5 1002.9,393.0 1014.1,387.3 1025.3,380.5 1036.5,372.7 1047.6,366.1 1058.8,360.5 1070.0,355.0"/>
<text x="75" y="622" font-size="14" fill="#374151">2026-02-27</text>
<text x="970" y="622" font-size="14" fill="#374151">2026-07-09</text>
<text x="880" y="32" font-size="15" fill="#111827">最新 65.14</text>
<text x="320" y="32" font-size="14" fill="#2563eb">收盘</text>
<text x="375" y="32" font-size="14" fill="#f59e0b">MA20</text>
<text x="440" y="32" font-size="14" fill="#7c3aed">MA60</text>
</svg>