<svg xmlns="http://www.w3.org/2000/svg" width="1100" height="640" viewBox="0 0 1100 640">
<rect width="100%" height="100%" fill="#ffffff"/>
<text x="75" y="32" font-size="22" font-weight="800" fill="#111827">汇川技术 300124 90日趋势/支撑压力</text>
<line x1="75" y1="55.0" x2="1070" y2="55.0" stroke="#e5e7eb"/>
<text x="18" y="60.0" font-size="14" fill="#4b5563">80.4</text>
<line x1="75" y1="187.5" x2="1070" y2="187.5" stroke="#e5e7eb"/>
<text x="18" y="192.5" font-size="14" fill="#4b5563">75.2</text>
<line x1="75" y1="320.0" x2="1070" y2="320.0" stroke="#e5e7eb"/>
<text x="18" y="325.0" font-size="14" fill="#4b5563">70.0</text>
<line x1="75" y1="452.5" x2="1070" y2="452.5" stroke="#e5e7eb"/>
<text x="18" y="457.5" font-size="14" fill="#4b5563">64.8</text>
<line x1="75" y1="585.0" x2="1070" y2="585.0" stroke="#e5e7eb"/>
<text x="18" y="590.0" font-size="14" fill="#4b5563">59.6</text>
<line x1="75" y1="524.2" x2="1070" y2="524.2" stroke="#16a34a" stroke-width="1.8" stroke-dasharray="8 7"/>
<text x="988" y="517.2" font-size="13" font-weight="700" fill="#16a34a">S1 62.01</text>
<line x1="75" y1="585.0" x2="1070" y2="585.0" stroke="#15803d" stroke-width="1.8" stroke-dasharray="8 7"/>
<text x="988" y="578.0" font-size="13" font-weight="700" fill="#15803d">S2 59.63</text>
<line x1="75" y1="408.2" x2="1070" y2="408.2" stroke="#dc2626" stroke-width="1.8" stroke-dasharray="8 7"/>
<text x="988" y="401.2" font-size="13" font-weight="700" fill="#dc2626">R1 66.55</text>
<line x1="75" y1="401.6" x2="1070" y2="401.6" stroke="#991b1b" stroke-width="1.8" stroke-dasharray="8 7"/>
<text x="988" y="394.6" font-size="13" font-weight="700" fill="#991b1b">R2 66.81</text>
<polyline fill="none" stroke="#2563eb" stroke-width="3" points="75.0,258.3 86.2,297.7 97.4,358.2 108.5,384.2 119.7,322.9 130.9,295.4 142.1,312.7 153.3,306.3 164.4,303.5 175.6,303.3 186.8,261.6 198.0,286.9 209.2,302.2 220.3,332.9 231.5,352.6 242.7,364.8 253.9,452.2 265.1,432.5 276.2,383.7 287.4,396.2 298.6,370.2 309.8,399.8 321.0,409.5 332.1,378.4 343.3,412.8 354.5,433.5 365.7,467.0 376.9,398.0 388.0,434.0 399.2,381.2 410.4,394.2 421.6,355.6 432.8,386.5 443.9,413.6 455.1,443.8 466.3,421.8 477.5,434.0 488.7,411.8 499.8,451.9 511.0,467.0 522.2,441.7 533.4,553.6 544.6,394.5 555.7,368.7 566.9,305.6 578.1,191.1 589.3,205.2 600.4,141.6 611.6,193.7 622.8,167.9 634.0,220.0 645.2,145.9 656.3,144.9 667.5,133.7 678.7,160.2 689.9,134.4 701.1,103.3 712.2,107.4 723.4,55.0 734.6,126.0 745.8,155.4 757.0,231.8 768.1,218.0 779.3,167.6 790.5,183.2 801.7,214.1 812.9,190.4 824.0,204.7 835.2,202.6 846.4,317.6 857.6,340.3 868.8,392.7 879.9,338.0 891.1,314.0 902.3,326.5 913.5,290.0 924.7,346.9 935.8,401.4 947.0,414.4 958.2,400.8 969.4,491.8 980.6,442.0 991.7,413.9 1002.9,366.1 1014.1,361.0 1025.3,265.2 1036.5,362.8 1047.6,421.0 1058.8,493.8 1070.0,465.2"/>
<polyline fill="none" stroke="#f59e0b" stroke-width="2" points="287.4,335.4 298.6,341.0 309.8,346.1 321.0,348.7 332.1,348.4 343.3,352.9 354.5,359.8 365.7,367.5 376.9,372.1 388.0,378.6 399.2,382.5 410.4,389.1 421.6,392.6 432.8,396.8 443.9,400.8 455.1,405.4 466.3,408.2 477.5,407.3 488.7,406.3 499.8,409.7 511.0,413.2 522.2,416.8 533.4,424.5 544.6,423.8 555.7,423.3 566.9,417.9 578.1,405.8 589.3,392.7 600.4,379.9 611.6,367.9 622.8,357.2 634.0,348.5 645.2,338.0 656.3,325.9 667.5,311.9 678.7,297.7 689.9,283.4 701.1,266.8 712.2,251.6 723.4,231.8 734.6,214.7 745.8,200.4 757.0,184.3 768.1,175.5 779.3,165.4 790.5,159.3 801.7,160.5 812.9,159.7 824.0,162.9 835.2,163.3 846.4,170.8 857.6,176.8 868.8,189.2 879.9,198.8 891.1,207.8 902.3,216.1 913.5,223.9 924.7,236.1 935.8,250.8 947.0,268.8 958.2,282.5 969.4,299.3 980.6,309.8 991.7,319.6 1002.9,329.6 1014.1,338.5 1025.3,341.0 1036.5,349.6 1047.6,360.4 1058.8,375.0 1070.0,382.4"/>
<polyline fill="none" stroke="#7c3aed" stroke-width="2" points="734.6,321.1 745.8,319.4 757.0,318.3 768.1,316.0 779.3,312.4 790.5,310.0 801.7,308.7 812.9,306.6 824.0,304.9 835.2,303.3 846.4,303.5 857.6,304.8 868.8,306.6 879.9,307.2 891.1,306.9 902.3,306.4 913.5,305.2 924.7,303.4 935.8,302.9 947.0,303.4 958.2,303.5 969.4,305.5 980.6,306.2 991.7,306.3 1002.9,306.1 1014.1,305.2 1025.3,302.4 1036.5,300.7 1047.6,301.1 1058.8,302.1 1070.0,303.5"/>
<text x="75" y="622" font-size="14" fill="#374151">2026-02-27</text>
<text x="970" y="622" font-size="14" fill="#374151">2026-07-09</text>
<text x="880" y="32" font-size="15" fill="#111827">最新 64.32</text>
<text x="320" y="32" font-size="14" fill="#2563eb">收盘</text>
<text x="375" y="32" font-size="14" fill="#f59e0b">MA20</text>
<text x="440" y="32" font-size="14" fill="#7c3aed">MA60</text>
</svg>