<svg xmlns="http://www.w3.org/2000/svg" width="1100" height="640" viewBox="0 0 1100 640">
<rect width="100%" height="100%" fill="#ffffff"/>
<text x="75" y="32" font-size="22" font-weight="800" fill="#111827">贝斯特 300580 90日趋势/支撑压力</text>
<line x1="75" y1="55.0" x2="1070" y2="55.0" stroke="#e5e7eb"/>
<text x="18" y="60.0" font-size="14" fill="#4b5563">30.6</text>
<line x1="75" y1="187.5" x2="1070" y2="187.5" stroke="#e5e7eb"/>
<text x="18" y="192.5" font-size="14" fill="#4b5563">27.5</text>
<line x1="75" y1="320.0" x2="1070" y2="320.0" stroke="#e5e7eb"/>
<text x="18" y="325.0" font-size="14" fill="#4b5563">24.3</text>
<line x1="75" y1="452.5" x2="1070" y2="452.5" stroke="#e5e7eb"/>
<text x="18" y="457.5" font-size="14" fill="#4b5563">21.2</text>
<line x1="75" y1="585.0" x2="1070" y2="585.0" stroke="#e5e7eb"/>
<text x="18" y="590.0" font-size="14" fill="#4b5563">18.0</text>
<line x1="75" y1="406.8" x2="1070" y2="406.8" stroke="#16a34a" stroke-width="1.8" stroke-dasharray="8 7"/>
<text x="988" y="399.8" font-size="13" font-weight="700" fill="#16a34a">S1 22.26</text>
<line x1="75" y1="411.9" x2="1070" y2="411.9" stroke="#15803d" stroke-width="1.8" stroke-dasharray="8 7"/>
<text x="988" y="404.9" font-size="13" font-weight="700" fill="#15803d">S2 22.14</text>
<line x1="75" y1="308.0" x2="1070" y2="308.0" stroke="#dc2626" stroke-width="1.8" stroke-dasharray="8 7"/>
<text x="988" y="301.0" font-size="13" font-weight="700" fill="#dc2626">R1 24.60</text>
<line x1="75" y1="276.3" x2="1070" y2="276.3" stroke="#991b1b" stroke-width="1.8" stroke-dasharray="8 7"/>
<text x="988" y="269.3" font-size="13" font-weight="700" fill="#991b1b">R2 25.35</text>
<polyline fill="none" stroke="#2563eb" stroke-width="3" points="75.0,343.0 86.2,381.9 97.4,435.9 108.5,433.0 119.7,425.8 130.9,414.8 142.1,424.9 153.3,403.4 164.4,405.9 175.6,419.5 186.8,428.7 198.0,430.9 209.2,442.7 220.3,425.4 231.5,421.6 242.7,437.6 253.9,437.2 265.1,438.9 276.2,441.8 287.4,461.7 298.6,446.1 309.8,393.3 321.0,406.8 332.1,378.1 343.3,398.3 354.5,389.9 365.7,390.7 376.9,304.2 388.0,339.2 399.2,314.7 410.4,316.0 421.6,257.3 432.8,219.3 443.9,204.1 455.1,183.0 466.3,91.3 477.5,55.0 488.7,63.9 499.8,122.6 511.0,149.2 522.2,142.8 533.4,157.2 544.6,154.2 555.7,130.2 566.9,143.7 578.1,99.8 589.3,70.6 600.4,105.7 611.6,129.3 622.8,145.4 634.0,204.5 645.2,174.5 656.3,195.6 667.5,226.5 678.7,243.8 689.9,202.0 701.1,142.0 712.2,180.8 723.4,193.1 734.6,240.8 745.8,287.7 757.0,349.4 768.1,381.0 779.3,381.0 790.5,386.1 801.7,392.8 812.9,362.4 824.0,269.5 835.2,270.4 846.4,322.3 857.6,349.4 868.8,370.0 879.9,346.0 891.1,358.6 902.3,378.1 913.5,385.7 924.7,452.4 935.8,475.2 947.0,507.3 958.2,544.5 969.4,585.0 980.6,537.7 991.7,497.6 1002.9,473.9 1014.1,433.4 1025.3,250.5 1036.5,263.6 1047.6,281.4 1058.8,367.1 1070.0,376.4"/>
<polyline fill="none" stroke="#f59e0b" stroke-width="2" points="287.4,422.7 298.6,427.9 309.8,428.4 321.0,427.0 332.1,424.2 343.3,422.9 354.5,421.6 365.7,419.9 376.9,415.0 388.0,411.6 399.2,406.4 410.4,400.7 421.6,392.1 432.8,380.9 443.9,369.8 455.1,357.9 466.3,340.6 477.5,321.5 488.7,302.7 499.8,286.8 511.0,271.1 522.2,256.0 533.4,244.2 544.6,231.5 555.7,219.2 566.9,206.4 578.1,191.9 589.3,175.9 600.4,166.0 611.6,155.5 622.8,147.0 634.0,141.4 645.2,137.3 656.3,136.1 667.5,137.2 678.7,140.3 689.9,145.8 701.1,150.2 712.2,156.0 723.4,159.5 734.6,164.1 745.8,171.4 757.0,181.0 768.1,192.3 779.3,204.9 790.5,217.0 801.7,231.6 812.9,246.2 824.0,254.4 835.2,261.5 846.4,270.3 857.6,277.6 868.8,287.3 879.9,294.9 891.1,301.5 902.3,308.2 913.5,317.4 924.7,332.9 935.8,347.6 947.0,363.3 958.2,378.5 969.4,393.4 980.6,402.8 991.7,408.6 1002.9,413.2 1014.1,415.6 1025.3,408.5 1036.5,403.6 1047.6,404.1 1058.8,409.0 1070.0,411.7"/>
<polyline fill="none" stroke="#7c3aed" stroke-width="2" points="734.6,286.0 745.8,285.1 757.0,284.5 768.1,283.6 779.3,282.8 790.5,282.1 801.7,281.7 812.9,280.7 824.0,278.5 835.2,276.2 846.4,274.6 857.6,273.3 868.8,272.2 879.9,270.6 891.1,269.5 902.3,268.8 913.5,267.9 924.7,268.2 935.8,268.8 947.0,269.9 958.2,271.3 969.4,273.6 980.6,276.0 991.7,277.5 1002.9,279.1 1014.1,279.7 1025.3,277.3 1036.5,275.2 1047.6,274.8 1058.8,275.3 1070.0,276.3"/>
<text x="75" y="622" font-size="14" fill="#374151">2026-02-27</text>
<text x="970" y="622" font-size="14" fill="#374151">2026-07-09</text>
<text x="880" y="32" font-size="15" fill="#111827">最新 22.98</text>
<text x="320" y="32" font-size="14" fill="#2563eb">收盘</text>
<text x="375" y="32" font-size="14" fill="#f59e0b">MA20</text>
<text x="440" y="32" font-size="14" fill="#7c3aed">MA60</text>
</svg>