<svg xmlns="http://www.w3.org/2000/svg" width="1100" height="640" viewBox="0 0 1100 640">
<rect width="100%" height="100%" fill="#ffffff"/>
<text x="75" y="32" font-size="22" font-weight="800" fill="#111827">五洲新春 603667 90日趋势/支撑压力</text>
<line x1="75" y1="55.0" x2="1070" y2="55.0" stroke="#e5e7eb"/>
<text x="18" y="60.0" font-size="14" fill="#4b5563">88.0</text>
<line x1="75" y1="187.5" x2="1070" y2="187.5" stroke="#e5e7eb"/>
<text x="18" y="192.5" font-size="14" fill="#4b5563">80.2</text>
<line x1="75" y1="320.0" x2="1070" y2="320.0" stroke="#e5e7eb"/>
<text x="18" y="325.0" font-size="14" fill="#4b5563">72.2</text>
<line x1="75" y1="452.5" x2="1070" y2="452.5" stroke="#e5e7eb"/>
<text x="18" y="457.5" font-size="14" fill="#4b5563">64.3</text>
<line x1="75" y1="585.0" x2="1070" y2="585.0" stroke="#e5e7eb"/>
<text x="18" y="590.0" font-size="14" fill="#4b5563">56.5</text>
<line x1="75" y1="585.0" x2="1070" y2="585.0" stroke="#16a34a" stroke-width="1.8" stroke-dasharray="8 7"/>
<text x="988" y="578.0" font-size="13" font-weight="700" fill="#16a34a">S1 56.45</text>
<line x1="75" y1="585.0" x2="1070" y2="585.0" stroke="#15803d" stroke-width="1.8" stroke-dasharray="8 7"/>
<text x="988" y="578.0" font-size="13" font-weight="700" fill="#15803d">S2 56.45</text>
<line x1="75" y1="437.4" x2="1070" y2="437.4" stroke="#dc2626" stroke-width="1.8" stroke-dasharray="8 7"/>
<text x="988" y="430.4" font-size="13" font-weight="700" fill="#dc2626">R1 65.25</text>
<line x1="75" y1="435.6" x2="1070" y2="435.6" stroke="#991b1b" stroke-width="1.8" stroke-dasharray="8 7"/>
<text x="988" y="428.6" font-size="13" font-weight="700" fill="#991b1b">R2 65.36</text>
<polyline fill="none" stroke="#2563eb" stroke-width="3" points="75.0,191.9 86.2,244.0 97.4,333.8 108.5,323.7 119.7,310.3 130.9,316.6 142.1,325.4 153.3,251.1 164.4,269.5 175.6,256.8 186.8,323.0 198.0,332.7 209.2,376.4 220.3,360.6 231.5,411.4 242.7,435.4 253.9,468.3 265.1,460.0 276.2,410.1 287.4,414.8 298.6,414.9 309.8,409.7 321.0,421.3 332.1,386.3 343.3,417.3 354.5,422.1 365.7,432.7 376.9,363.4 388.0,399.8 399.2,351.9 410.4,370.7 421.6,338.8 432.8,356.6 443.9,343.8 455.1,350.5 466.3,357.1 477.5,340.3 488.7,339.3 499.8,388.3 511.0,409.6 522.2,415.3 533.4,476.0 544.6,457.9 555.7,420.5 566.9,406.9 578.1,342.0 589.3,222.7 600.4,205.8 611.6,193.0 622.8,168.5 634.0,243.2 645.2,117.7 656.3,108.2 667.5,127.0 678.7,192.0 689.9,112.5 701.1,55.0 712.2,73.3 723.4,79.3 734.6,224.7 745.8,280.2 757.0,330.2 768.1,387.8 779.3,376.0 790.5,355.2 801.7,328.9 812.9,287.0 824.0,282.8 835.2,308.1 846.4,408.7 857.6,443.4 868.8,459.5 879.9,408.1 891.1,418.5 902.3,416.1 913.5,395.8 924.7,428.7 935.8,466.6 947.0,423.1 958.2,457.2 969.4,514.4 980.6,504.8 991.7,432.9 1002.9,390.3 1014.1,354.7 1025.3,254.6 1036.5,382.2 1047.6,465.6 1058.8,543.9 1070.0,531.3"/>
<polyline fill="none" stroke="#f59e0b" stroke-width="2" points="287.4,340.8 298.6,351.9 309.8,360.2 321.0,364.6 332.1,367.7 343.3,373.1 354.5,378.4 365.7,383.7 376.9,389.3 388.0,395.9 399.2,400.6 410.4,403.0 421.6,403.3 432.8,402.3 443.9,401.5 455.1,398.4 466.3,394.5 477.5,388.1 488.7,382.1 499.8,381.0 511.0,380.7 522.2,380.7 533.4,384.0 544.6,385.9 555.7,387.6 566.9,387.1 578.1,383.1 589.3,372.6 600.4,364.7 611.6,354.3 622.8,345.2 634.0,338.8 645.2,327.7 656.3,315.3 667.5,304.5 678.7,296.6 689.9,284.3 701.1,270.1 712.2,256.8 723.4,241.3 734.6,232.1 745.8,225.3 757.0,218.0 768.1,214.5 779.3,212.3 790.5,209.7 801.7,209.1 812.9,212.3 824.0,216.1 835.2,221.9 846.4,233.9 857.6,243.9 868.8,261.0 879.9,276.0 891.1,290.6 902.3,301.8 913.5,315.9 924.7,334.6 935.8,354.3 947.0,371.5 958.2,383.1 969.4,394.8 980.6,403.5 991.7,405.8 1002.9,406.5 1014.1,406.5 1025.3,402.8 1036.5,407.5 1047.6,416.7 1058.8,428.5 1070.0,434.6"/>
<polyline fill="none" stroke="#7c3aed" stroke-width="2" points="734.6,317.9 745.8,319.3 757.0,320.8 768.1,321.7 779.3,322.5 790.5,323.3 801.7,323.5 812.9,322.9 824.0,323.4 835.2,324.0 846.4,326.6 857.6,328.6 868.8,330.7 879.9,331.2 891.1,332.2 902.3,332.2 913.5,331.6 924.7,330.9 935.8,331.0 947.0,331.3 958.2,332.0 969.4,333.6 980.6,335.2 991.7,335.4 1002.9,335.5 1014.1,334.4 1025.3,331.6 1036.5,330.8 1047.6,332.5 1058.8,334.9 1070.0,337.9"/>
<text x="75" y="622" font-size="14" fill="#374151">2026-02-27</text>
<text x="970" y="622" font-size="14" fill="#374151">2026-07-09</text>
<text x="880" y="32" font-size="15" fill="#111827">最新 59.65</text>
<text x="320" y="32" font-size="14" fill="#2563eb">收盘</text>
<text x="375" y="32" font-size="14" fill="#f59e0b">MA20</text>
<text x="440" y="32" font-size="14" fill="#7c3aed">MA60</text>
</svg>