<svg xmlns="http://www.w3.org/2000/svg" width="1100" height="640" viewBox="0 0 1100 640">
<rect width="100%" height="100%" fill="#ffffff"/>
<text x="75" y="32" font-size="22" font-weight="800" fill="#111827">鸣志电器 603728 90日趋势/支撑压力</text>
<line x1="75" y1="55.0" x2="1070" y2="55.0" stroke="#e5e7eb"/>
<text x="18" y="60.0" font-size="14" fill="#4b5563">70.0</text>
<line x1="75" y1="187.5" x2="1070" y2="187.5" stroke="#e5e7eb"/>
<text x="18" y="192.5" font-size="14" fill="#4b5563">65.8</text>
<line x1="75" y1="320.0" x2="1070" y2="320.0" stroke="#e5e7eb"/>
<text x="18" y="325.0" font-size="14" fill="#4b5563">61.6</text>
<line x1="75" y1="452.5" x2="1070" y2="452.5" stroke="#e5e7eb"/>
<text x="18" y="457.5" font-size="14" fill="#4b5563">57.4</text>
<line x1="75" y1="585.0" x2="1070" y2="585.0" stroke="#e5e7eb"/>
<text x="18" y="590.0" font-size="14" fill="#4b5563">53.1</text>
<line x1="75" y1="585.0" x2="1070" y2="585.0" stroke="#16a34a" stroke-width="1.8" stroke-dasharray="8 7"/>
<text x="988" y="578.0" font-size="13" font-weight="700" fill="#16a34a">S1 53.15</text>
<line x1="75" y1="585.0" x2="1070" y2="585.0" stroke="#15803d" stroke-width="1.8" stroke-dasharray="8 7"/>
<text x="988" y="578.0" font-size="13" font-weight="700" fill="#15803d">S2 53.15</text>
<line x1="75" y1="332.7" x2="1070" y2="332.7" stroke="#dc2626" stroke-width="1.8" stroke-dasharray="8 7"/>
<text x="988" y="325.7" font-size="13" font-weight="700" fill="#dc2626">R1 61.16</text>
<line x1="75" y1="327.0" x2="1070" y2="327.0" stroke="#991b1b" stroke-width="1.8" stroke-dasharray="8 7"/>
<text x="988" y="320.0" font-size="13" font-weight="700" fill="#991b1b">R2 61.34</text>
<polyline fill="none" stroke="#2563eb" stroke-width="3" points="75.0,82.4 86.2,163.7 97.4,287.8 108.5,305.7 119.7,292.2 130.9,283.7 142.1,297.6 153.3,244.6 164.4,271.7 175.6,289.1 186.8,322.1 198.0,339.8 209.2,397.7 220.3,377.9 231.5,427.3 242.7,458.8 253.9,447.5 265.1,474.0 276.2,452.5 287.4,458.8 298.6,439.9 309.8,443.7 321.0,465.1 332.1,425.1 343.3,479.6 354.5,508.0 365.7,525.3 376.9,415.1 388.0,454.7 399.2,416.0 410.4,432.7 421.6,405.6 432.8,415.1 443.9,392.1 455.1,380.7 466.3,395.8 477.5,414.4 488.7,402.5 499.8,449.4 511.0,462.3 522.2,441.8 533.4,466.1 544.6,418.8 555.7,390.5 566.9,369.1 578.1,327.8 589.3,260.4 600.4,246.8 611.6,262.0 622.8,261.3 634.0,315.2 645.2,212.8 656.3,144.8 667.5,127.1 678.7,166.2 689.9,136.9 701.1,112.0 712.2,86.8 723.4,55.0 734.6,163.7 745.8,220.7 757.0,328.4 768.1,377.3 779.3,290.9 790.5,298.2 801.7,259.1 812.9,186.7 824.0,135.3 835.2,177.2 846.4,285.3 857.6,331.6 868.8,348.0 879.9,298.5 891.1,300.7 902.3,328.1 913.5,247.6 924.7,359.8 935.8,387.5 947.0,379.0 958.2,406.1 969.4,500.3 980.6,514.8 991.7,340.2 1002.9,270.3 1014.1,263.1 1025.3,116.6 1036.5,208.9 1047.6,265.3 1058.8,410.2 1070.0,380.2"/>
<polyline fill="none" stroke="#f59e0b" stroke-width="2" points="287.4,333.8 298.6,351.6 309.8,365.6 321.0,374.5 332.1,380.5 343.3,389.8 354.5,401.1 365.7,412.4 376.9,421.0 388.0,430.1 399.2,436.5 410.4,442.0 421.6,445.3 432.8,446.1 443.9,446.9 455.1,444.5 466.3,441.4 477.5,439.7 488.7,436.1 499.8,436.0 511.0,436.2 522.2,436.3 533.4,437.4 544.6,435.1 555.7,433.3 566.9,427.8 578.1,418.8 589.3,405.5 600.4,397.1 611.6,387.5 622.8,379.8 634.0,373.9 645.2,364.2 656.3,350.7 667.5,337.5 678.7,326.8 689.9,313.8 701.1,298.7 712.2,282.9 723.4,263.2 734.6,248.3 745.8,237.2 757.0,230.3 768.1,228.2 779.3,223.3 790.5,219.7 801.7,216.3 812.9,212.6 824.0,207.0 835.2,202.8 846.4,204.0 857.6,204.8 868.8,211.6 879.9,219.2 891.1,227.9 902.3,236.0 913.5,241.6 924.7,253.9 935.8,269.0 947.0,285.2 958.2,297.3 969.4,311.3 980.6,320.6 991.7,318.7 1002.9,317.7 1014.1,316.0 1025.3,308.8 1036.5,309.9 1047.6,316.4 1058.8,328.1 1070.0,332.8"/>
<polyline fill="none" stroke="#7c3aed" stroke-width="2" points="734.6,339.4 745.8,341.7 757.0,344.4 768.1,345.9 779.3,345.7 790.5,345.8 801.7,345.4 812.9,343.5 824.0,341.7 835.2,340.1 846.4,340.1 857.6,340.2 868.8,340.4 879.9,338.7 891.1,337.4 902.3,335.8 913.5,332.2 924.7,330.8 935.8,329.3 947.0,328.1 958.2,327.2 969.4,328.2 980.6,329.4 991.7,327.3 1002.9,324.8 1014.1,321.2 1025.3,314.6 1036.5,309.4 1047.6,306.9 1058.8,306.1 1070.0,305.5"/>
<text x="75" y="622" font-size="14" fill="#374151">2026-02-27</text>
<text x="970" y="622" font-size="14" fill="#374151">2026-07-09</text>
<text x="880" y="32" font-size="15" fill="#111827">最新 59.65</text>
<text x="320" y="32" font-size="14" fill="#2563eb">收盘</text>
<text x="375" y="32" font-size="14" fill="#f59e0b">MA20</text>
<text x="440" y="32" font-size="14" fill="#7c3aed">MA60</text>
</svg>