<svg xmlns="http://www.w3.org/2000/svg" width="1100" height="640" viewBox="0 0 1100 640">
<rect width="100%" height="100%" fill="#ffffff"/>
<text x="75" y="32" font-size="22" font-weight="800" fill="#111827">绿的谐波 688017 90日趋势/支撑压力</text>
<line x1="75" y1="55.0" x2="1070" y2="55.0" stroke="#e5e7eb"/>
<text x="18" y="60.0" font-size="14" fill="#4b5563">487.8</text>
<line x1="75" y1="187.5" x2="1070" y2="187.5" stroke="#e5e7eb"/>
<text x="18" y="192.5" font-size="14" fill="#4b5563">411.0</text>
<line x1="75" y1="320.0" x2="1070" y2="320.0" stroke="#e5e7eb"/>
<text x="18" y="325.0" font-size="14" fill="#4b5563">334.2</text>
<line x1="75" y1="452.5" x2="1070" y2="452.5" stroke="#e5e7eb"/>
<text x="18" y="457.5" font-size="14" fill="#4b5563">257.5</text>
<line x1="75" y1="585.0" x2="1070" y2="585.0" stroke="#e5e7eb"/>
<text x="18" y="590.0" font-size="14" fill="#4b5563">180.7</text>
<line x1="75" y1="207.3" x2="1070" y2="207.3" stroke="#16a34a" stroke-width="1.8" stroke-dasharray="8 7"/>
<text x="988" y="200.3" font-size="13" font-weight="700" fill="#16a34a">S1 399.53</text>
<line x1="75" y1="301.8" x2="1070" y2="301.8" stroke="#15803d" stroke-width="1.8" stroke-dasharray="8 7"/>
<text x="988" y="294.8" font-size="13" font-weight="700" fill="#15803d">S2 344.79</text>
<line x1="75" y1="173.7" x2="1070" y2="173.7" stroke="#dc2626" stroke-width="1.8" stroke-dasharray="8 7"/>
<text x="988" y="166.7" font-size="13" font-weight="700" fill="#dc2626">R1 419.02</text>
<line x1="75" y1="135.6" x2="1070" y2="135.6" stroke="#991b1b" stroke-width="1.8" stroke-dasharray="8 7"/>
<text x="988" y="128.6" font-size="13" font-weight="700" fill="#991b1b">R2 441.06</text>
<polyline fill="none" stroke="#2563eb" stroke-width="3" points="75.0,496.1 86.2,504.5 97.4,535.5 108.5,532.7 119.7,529.6 130.9,530.5 142.1,537.6 153.3,524.7 164.4,537.0 175.6,543.9 186.8,555.5 198.0,558.5 209.2,568.4 220.3,561.0 231.5,569.9 242.7,576.1 253.9,585.0 265.1,583.1 276.2,572.8 287.4,572.2 298.6,573.3 309.8,567.1 321.0,574.2 332.1,548.6 343.3,563.2 354.5,573.9 365.7,576.8 376.9,546.1 388.0,553.2 399.2,545.1 410.4,546.9 421.6,540.1 432.8,540.8 443.9,538.2 455.1,529.6 466.3,533.4 477.5,529.0 488.7,517.5 499.8,545.5 511.0,542.9 522.2,528.2 533.4,538.8 544.6,526.1 555.7,510.4 566.9,505.7 578.1,499.4 589.3,443.3 600.4,429.5 611.6,424.5 622.8,414.6 634.0,439.8 645.2,369.9 656.3,339.9 667.5,334.3 678.7,338.6 689.9,319.0 701.1,307.0 712.2,294.9 723.4,313.0 734.6,343.2 745.8,351.6 757.0,369.1 768.1,401.3 779.3,369.1 790.5,353.8 801.7,332.0 812.9,218.9 824.0,158.1 835.2,172.1 846.4,165.4 857.6,263.8 868.8,291.4 879.9,254.1 891.1,247.9 902.3,238.6 913.5,193.0 924.7,218.4 935.8,243.9 947.0,235.9 958.2,222.4 969.4,259.6 980.6,273.1 991.7,176.0 1002.9,165.5 1014.1,184.3 1025.3,55.0 1036.5,113.7 1047.6,94.6 1058.8,222.4 1070.0,192.6"/>
<polyline fill="none" stroke="#f59e0b" stroke-width="2" points="287.4,548.7 298.6,552.6 309.8,555.7 321.0,557.6 332.1,558.4 343.3,560.1 354.5,562.3 365.7,564.2 376.9,565.3 388.0,566.1 399.2,566.2 410.4,565.8 421.6,564.8 432.8,563.5 443.9,562.3 455.1,560.3 466.3,558.2 477.5,555.4 488.7,552.1 499.8,550.7 511.0,549.3 522.2,547.0 533.4,545.6 544.6,543.2 555.7,541.3 566.9,538.4 578.1,534.7 589.3,528.0 600.4,522.2 611.6,515.7 622.8,509.2 634.0,503.9 645.2,495.4 656.3,485.3 667.5,475.1 678.7,465.6 689.9,454.9 701.1,443.7 712.2,432.6 723.4,421.0 734.6,411.0 745.8,402.2 757.0,393.7 768.1,387.5 779.3,380.4 790.5,372.8 801.7,364.4 812.9,353.2 824.0,339.6 835.2,327.0 846.4,314.6 857.6,305.8 868.8,301.8 879.9,297.5 891.1,293.2 902.3,288.2 913.5,281.9 924.7,277.5 935.8,274.9 947.0,271.1 958.2,265.0 969.4,260.4 980.6,255.6 991.7,244.4 1002.9,234.2 1014.1,225.7 1025.3,211.9 1036.5,206.6 1047.6,203.4 1058.8,206.0 1070.0,207.3"/>
<polyline fill="none" stroke="#7c3aed" stroke-width="2" points="734.6,503.0 745.8,500.6 757.0,498.3 768.1,496.1 779.3,493.4 790.5,490.4 801.7,487.1 812.9,481.8 824.0,475.7 835.2,469.6 846.4,463.3 857.6,458.5 868.8,454.0 879.9,448.8 891.1,443.6 902.3,438.0 913.5,431.6 924.7,425.5 935.8,419.9 947.0,414.3 958.2,408.4 969.4,403.2 980.6,398.3 991.7,391.7 1002.9,385.3 1014.1,379.0 1025.3,370.3 1036.5,362.6 1047.6,355.1 1058.8,349.6 1070.0,343.7"/>
<text x="75" y="622" font-size="14" fill="#374151">2026-02-27</text>
<text x="970" y="622" font-size="14" fill="#374151">2026-07-09</text>
<text x="880" y="32" font-size="15" fill="#111827">最新 408.07</text>
<text x="320" y="32" font-size="14" fill="#2563eb">收盘</text>
<text x="375" y="32" font-size="14" fill="#f59e0b">MA20</text>
<text x="440" y="32" font-size="14" fill="#7c3aed">MA60</text>
</svg>