<svg xmlns="http://www.w3.org/2000/svg" width="1100" height="640" viewBox="0 0 1100 640">
<rect width="100%" height="100%" fill="#ffffff"/>
<text x="75" y="32" font-size="22" font-weight="800" fill="#111827">禾川科技 688320 90日趋势/支撑压力</text>
<line x1="75" y1="55.0" x2="1070" y2="55.0" stroke="#e5e7eb"/>
<text x="18" y="60.0" font-size="14" fill="#4b5563">43.0</text>
<line x1="75" y1="187.5" x2="1070" y2="187.5" stroke="#e5e7eb"/>
<text x="18" y="192.5" font-size="14" fill="#4b5563">39.4</text>
<line x1="75" y1="320.0" x2="1070" y2="320.0" stroke="#e5e7eb"/>
<text x="18" y="325.0" font-size="14" fill="#4b5563">35.9</text>
<line x1="75" y1="452.5" x2="1070" y2="452.5" stroke="#e5e7eb"/>
<text x="18" y="457.5" font-size="14" fill="#4b5563">32.4</text>
<line x1="75" y1="585.0" x2="1070" y2="585.0" stroke="#e5e7eb"/>
<text x="18" y="590.0" font-size="14" fill="#4b5563">28.9</text>
<line x1="75" y1="398.0" x2="1070" y2="398.0" stroke="#16a34a" stroke-width="1.8" stroke-dasharray="8 7"/>
<text x="988" y="391.0" font-size="13" font-weight="700" fill="#16a34a">S1 33.87</text>
<line x1="75" y1="539.3" x2="1070" y2="539.3" stroke="#15803d" stroke-width="1.8" stroke-dasharray="8 7"/>
<text x="988" y="532.3" font-size="13" font-weight="700" fill="#15803d">S2 30.13</text>
<line x1="75" y1="280.9" x2="1070" y2="280.9" stroke="#dc2626" stroke-width="1.8" stroke-dasharray="8 7"/>
<text x="988" y="273.9" font-size="13" font-weight="700" fill="#dc2626">R1 36.97</text>
<line x1="75" y1="216.7" x2="1070" y2="216.7" stroke="#991b1b" stroke-width="1.8" stroke-dasharray="8 7"/>
<text x="988" y="209.7" font-size="13" font-weight="700" fill="#991b1b">R2 38.67</text>
<polyline fill="none" stroke="#2563eb" stroke-width="3" points="75.0,314.1 86.2,354.9 97.4,439.6 108.5,455.8 119.7,432.0 130.9,410.5 142.1,407.5 153.3,394.2 164.4,400.7 175.6,427.5 186.8,441.1 198.0,447.5 209.2,473.9 220.3,472.8 231.5,508.3 242.7,543.8 253.9,560.4 265.1,549.5 276.2,524.9 287.4,516.6 298.6,512.1 309.8,535.5 321.0,538.2 332.1,517.8 343.3,554.0 354.5,585.0 365.7,580.1 376.9,504.5 388.0,540.4 399.2,506.4 410.4,496.6 421.6,486.0 432.8,498.9 443.9,485.6 455.1,489.8 466.3,496.6 477.5,507.9 488.7,488.3 499.8,512.8 511.0,515.5 522.2,450.1 533.4,499.6 544.6,418.8 555.7,403.3 566.9,375.3 578.1,263.9 589.3,227.3 600.4,228.0 611.6,249.5 622.8,274.1 634.0,264.3 645.2,90.9 656.3,138.1 667.5,127.9 678.7,159.6 689.9,159.3 701.1,146.0 712.2,118.1 723.4,162.7 734.6,227.6 745.8,219.7 757.0,310.0 768.1,286.2 779.3,272.2 790.5,257.5 801.7,277.9 812.9,221.2 824.0,236.7 835.2,212.9 846.4,268.4 857.6,320.2 868.8,313.0 879.9,272.2 891.1,226.9 902.3,254.5 913.5,217.4 924.7,282.8 935.8,269.2 947.0,198.5 958.2,232.5 969.4,286.2 980.6,186.1 991.7,111.7 1002.9,98.1 1014.1,117.0 1025.3,55.0 1036.5,103.0 1047.6,172.1 1058.8,285.1 1070.0,330.0"/>
<polyline fill="none" stroke="#f59e0b" stroke-width="2" points="287.4,453.8 298.6,463.7 309.8,472.7 321.0,477.6 332.1,480.7 343.3,486.8 354.5,495.6 365.7,504.2 376.9,509.7 388.0,516.7 399.2,520.6 410.4,523.4 421.6,525.4 432.8,526.6 443.9,527.2 455.1,526.3 466.3,524.0 477.5,521.3 488.7,518.3 499.8,517.7 511.0,517.6 522.2,514.5 533.4,512.7 544.6,506.7 555.7,501.0 566.9,492.1 578.1,476.0 589.3,458.4 600.4,444.6 611.6,430.0 622.8,418.4 634.0,406.8 645.2,387.0 656.3,369.0 667.5,351.1 678.7,334.6 689.9,317.7 701.1,299.6 712.2,281.1 723.4,263.6 734.6,249.2 745.8,237.7 757.0,228.2 768.1,221.6 779.3,215.0 790.5,209.1 801.7,209.8 812.9,209.5 824.0,210.0 835.2,208.1 846.4,207.9 857.6,210.7 868.8,221.8 879.9,228.5 891.1,233.4 902.3,238.2 913.5,241.1 924.7,247.9 935.8,255.5 947.0,257.3 958.2,257.5 969.4,260.8 980.6,254.6 991.7,245.9 1002.9,237.2 1014.1,230.2 1025.3,219.0 1036.5,213.1 1047.6,209.9 1058.8,213.5 1070.0,216.6"/>
<polyline fill="none" stroke="#7c3aed" stroke-width="2" points="734.6,406.9 745.8,405.3 757.0,404.5 768.1,402.0 779.3,398.9 790.5,396.0 801.7,393.8 812.9,390.7 824.0,388.1 835.2,385.0 846.4,382.3 857.6,380.3 868.8,378.0 879.9,374.7 891.1,370.6 902.3,366.4 913.5,360.9 924.7,356.3 935.8,351.6 947.0,346.2 958.2,341.4 969.4,337.7 980.6,331.9 991.7,324.7 1002.9,317.8 1014.1,310.5 1025.3,301.6 1036.5,293.7 1047.6,288.1 1058.8,283.9 1070.0,280.9"/>
<text x="75" y="622" font-size="14" fill="#374151">2026-02-27</text>
<text x="970" y="622" font-size="14" fill="#374151">2026-07-09</text>
<text x="880" y="32" font-size="15" fill="#111827">最新 35.67</text>
<text x="320" y="32" font-size="14" fill="#2563eb">收盘</text>
<text x="375" y="32" font-size="14" fill="#f59e0b">MA20</text>
<text x="440" y="32" font-size="14" fill="#7c3aed">MA60</text>
</svg>