<svg xmlns="http://www.w3.org/2000/svg" width="1200" height="1500" viewBox="0 0 1200 1500">
<style>
text{font-family:'PingFang SC','Microsoft YaHei','Noto Sans CJK SC',Arial,sans-serif}
.title{font-size:34px;font-weight:800;fill:#111827}.h{font-size:24px;font-weight:800;fill:#0f172a}
.n{font-size:19px;font-weight:700;fill:#111827}.s{font-size:15px;fill:#374151}
.box{rx:18;stroke-width:2}.main{fill:#eff6ff;stroke:#2563eb}.up{fill:#ecfdf5;stroke:#16a34a}
.mid{fill:#fff7ed;stroke:#ea580c}.down{fill:#f5f3ff;stroke:#7c3aed}.risk{fill:#fff1f2;stroke:#e11d48;stroke-dasharray:10 8}
.arrow{stroke:#2563eb;stroke-width:4;marker-end:url(#arrow)}
</style>
<defs><marker id="arrow" markerWidth="12" markerHeight="12" refX="10" refY="6" orient="auto"><path d="M2,2 L10,6 L2,10 Z" fill="#2563eb"/></marker></defs>
<rect width="1200" height="1500" fill="#ffffff"/>
<text x="60" y="70" class="title">1分钟拆解产业链：物理AI/人形机器人核心零部件</text>
<text x="60" y="112" class="s">研究主线：企业AI扩散 + 人形机器人量产爬坡 -> 物理世界执行系统 -> 上游精密传动/控制/传感卡口</text>

<rect x="60" y="150" width="250" height="110" class="box main"/><text x="82" y="188" class="n">需求触发</text><text x="82" y="220" class="s">企业AI进入工作流</text><text x="82" y="246" class="s">具身智能从演示到量产</text>
<rect x="335" y="150" width="250" height="110" class="box main"/><text x="357" y="188" class="n">价格信号</text><text x="357" y="220" class="s">绿的谐波单日-15.93%</text><text x="357" y="246" class="s">市场惩罚远期叙事</text>
<rect x="610" y="150" width="250" height="110" class="box main"/><text x="632" y="188" class="n">研究焦点</text><text x="632" y="220" class="s">不买主题，找卡口</text><text x="632" y="246" class="s">订单/客户/良率验证</text>
<rect x="885" y="150" width="250" height="110" class="box main"/><text x="907" y="188" class="n">核心标的</text><text x="907" y="220" class="s">绿的谐波：主研究位</text><text x="907" y="246" class="s">宁德时代：相邻验证位</text>

<text x="520" y="325" class="h">上游卡口</text>
<rect x="170" y="360" width="260" height="120" class="box up"/><text x="195" y="400" class="n">减速器/丝杠</text><text x="195" y="432" class="s">运动精度、寿命、负载</text><text x="195" y="458" class="s">代表：绿的谐波/秦川机床</text>
<rect x="470" y="360" width="260" height="120" class="box up"/><text x="495" y="400" class="n">伺服电机/控制器</text><text x="495" y="432" class="s">响应速度、控制精度</text><text x="495" y="458" class="s">代表：鸣志电器/汇川技术</text>
<rect x="770" y="360" width="260" height="120" class="box up"/><text x="795" y="400" class="n">传感器/精密加工</text><text x="795" y="432" class="s">感知、良率、检测</text><text x="795" y="458" class="s">代表：待验证配套链</text>
<line x1="600" y1="500" x2="600" y2="585" class="arrow"/>

<text x="510" y="635" class="h">中游制造</text>
<rect x="250" y="670" width="300" height="125" class="box mid"/><text x="280" y="712" class="n">人形机器人本体</text><text x="280" y="746" class="s">BOM集成、工程交付</text><text x="280" y="772" class="s">验证：量产爬坡/客户订单</text>
<rect x="650" y="670" width="300" height="125" class="box mid"/><text x="680" y="712" class="n">工程机械/通用设备</text><text x="680" y="746" class="s">电动化、智能化设备</text><text x="680" y="772" class="s">验证：销量/出口/资本开支</text>
<line x1="600" y1="815" x2="600" y2="900" class="arrow"/>

<text x="520" y="950" class="h">下游应用</text>
<rect x="170" y="985" width="260" height="120" class="box down"/><text x="195" y="1026" class="n">工厂自动化</text><text x="195" y="1058" class="s">替代人工、柔性生产</text><text x="195" y="1084" class="s">看订单和ROI</text>
<rect x="470" y="985" width="260" height="120" class="box down"/><text x="495" y="1026" class="n">物流搬运</text><text x="495" y="1058" class="s">仓储、装卸、配送</text><text x="495" y="1084" class="s">看场景复制</text>
<rect x="770" y="985" width="260" height="120" class="box down"/><text x="795" y="1026" class="n">服务/施工场景</text><text x="795" y="1058" class="s">工程机械、服务机器人</text><text x="795" y="1084" class="s">看销量和客户验证</text>

<rect x="120" y="1190" width="960" height="135" class="box risk"/><text x="150" y="1232" class="n">反证退出</text><text x="150" y="1266" class="s">1. 无订单/客户认证/收入占比证据；2. 高估值继续杀跌且无基本面修复；3. 替代路线成熟或扩产过快压低毛利。</text>
<text x="150" y="1300" class="s">结论：当前不是“买AI主题”，而是验证精密传动等上游卡口能否从概念变成订单和利润。</text>
</svg>