<svg xmlns="http://www.w3.org/2000/svg" width="1200" height="660" viewBox="0 0 1200 660">
<rect width="100%" height="100%" fill="#ffffff"/>
<text x="48" y="48" font-size="28" font-weight="800" fill="#111827">AI 算力服务器产业链：A股候选估值与证据状态</text>
<text x="48" y="86" font-size="16" fill="#4b5563">PE/PB来自公开行情或补充数据；缺失时保留为待验证，不用估算值填充。</text>
<text x="56" y="163" font-size="17" font-weight="700" fill="#111827">海光信息</text>
<text x="56" y="189" font-size="14" fill="#6b7280">688041</text>
<rect x="210" y="138" width="781.8" height="34" rx="7" fill="#dc2626" opacity="0.84"/>
<text x="1006.8" y="162" font-size="15" fill="#111827">PE 309.9 / PB 36.5</text>
<text x="210" y="195" font-size="14" fill="#4b5563">2026一季报；营收同比 68.06%；归母净利同比 35.82%；毛利率 55.60%；中银证券《双芯驱动，生态筑基，引领国产算力新纪元…</text>
<text x="56" y="237" font-size="17" font-weight="700" fill="#111827">寒武纪</text>
<text x="56" y="263" font-size="14" fill="#6b7280">688256</text>
<rect x="210" y="212" width="820.0" height="34" rx="7" fill="#dc2626" opacity="0.84"/>
<text x="1045.0" y="236" font-size="15" fill="#111827">PE 326.3 / PB 68.9</text>
<text x="210" y="269" font-size="14" fill="#4b5563">财务指标未取得可靠公开数据；第一上海证券《AI Agent时代来临，国产算力支撑AI建设》；预测PE 83.9/49.7</text>
<text x="56" y="311" font-size="17" font-weight="700" fill="#111827">龙芯中科</text>
<text x="56" y="337" font-size="14" fill="#6b7280">688047</text>
<rect x="210" y="286" width="-275.1" height="34" rx="7" fill="#059669" opacity="0.84"/>
<text x="-50.1" y="310" font-size="15" fill="#111827">PE -143.9 / PB 25.1</text>
<text x="210" y="343" font-size="14" fill="#4b5563">2026一季报；营收同比 7.96%；归母净利同比 24.66%；毛利率 34.87%；东海证券《公司简评报告：下游需求显著回暖，持续拓展…</text>
<text x="56" y="385" font-size="17" font-weight="700" fill="#111827">工业富联</text>
<text x="56" y="411" font-size="14" fill="#6b7280">601138</text>
<rect x="210" y="360" width="139.1" height="34" rx="7" fill="#059669" opacity="0.84"/>
<text x="364.1" y="384" font-size="15" fill="#111827">PE 33.9 / PB 7.8</text>
<text x="210" y="417" font-size="14" fill="#4b5563">2026一季报；营收同比 56.52%；归母净利同比 102.55%；毛利率 7.35%；金元证券《AI服务器销售占比提升，毛利预期持续改…</text>
<text x="56" y="459" font-size="17" font-weight="700" fill="#111827">浪潮信息</text>
<text x="56" y="485" font-size="14" fill="#6b7280">000977</text>
<rect x="210" y="434" width="175.1" height="34" rx="7" fill="#059669" opacity="0.84"/>
<text x="400.1" y="458" font-size="15" fill="#111827">PE 49.4 / PB 5.7</text>
<text x="210" y="491" font-size="14" fill="#4b5563">2026一季报；营收同比 -24.30%；归母净利同比 30.74%；毛利率 6.64%；中邮证券《深度布局国产算力生态，业绩表现大超市场…</text>
<text x="56" y="533" font-size="17" font-weight="700" fill="#111827">中科曙光</text>
<text x="56" y="559" font-size="14" fill="#6b7280">603019</text>
<rect x="210" y="508" width="219.8" height="34" rx="7" fill="#ea580c" opacity="0.84"/>
<text x="444.8" y="532" font-size="15" fill="#111827">PE 68.6 / PB 6.9</text>
<text x="210" y="565" font-size="14" fill="#4b5563">2026一季报；营收同比 23.71%；归母净利同比 22.19%；毛利率 26.56%；太平洋《业绩稳健增长，落地全国首个6万卡集群》；…</text>
<text x="56" y="607" font-size="17" font-weight="700" fill="#111827">沪电股份</text>
<text x="56" y="633" font-size="14" fill="#6b7280">002463</text>
<rect x="210" y="582" width="203.1" height="34" rx="7" fill="#ea580c" opacity="0.84"/>
<text x="428.1" y="606" font-size="15" fill="#111827">PE 61.4 / PB 16.7</text>
<text x="210" y="639" font-size="14" fill="#4b5563">2026一季报；营收同比 53.91%；归母净利同比 62.90%；毛利率 35.63%；中邮证券《高速交换机业务高增，产能扩张蓄力长期成…</text>
<text x="56" y="681" font-size="17" font-weight="700" fill="#111827">深南电路</text>
<text x="56" y="707" font-size="14" fill="#6b7280">002916</text>
<rect x="210" y="656" width="253.2" height="34" rx="7" fill="#ea580c" opacity="0.84"/>
<text x="478.2" y="680" font-size="15" fill="#111827">PE 82.9 / PB 18.3</text>
<text x="210" y="713" font-size="14" fill="#4b5563">2026一季报；营收同比 37.90%；归母净利同比 73.01%；毛利率 29.17%；太平洋《AI算力+存储产品共驱25年业绩超预期增…</text>
<text x="56" y="755" font-size="17" font-weight="700" fill="#111827">胜宏科技</text>
<text x="56" y="781" font-size="14" fill="#6b7280">300476</text>
<rect x="210" y="730" width="205.1" height="34" rx="7" fill="#ea580c" opacity="0.84"/>
<text x="430.1" y="754" font-size="15" fill="#111827">PE 62.3 / PB 18.6</text>
<text x="210" y="787" font-size="14" fill="#4b5563">2026一季报；营收同比 27.99%；归母净利同比 39.95%；毛利率 34.46%；开源证券《公司信息更新报告：2026Q1业绩同环…</text>
<text x="56" y="829" font-size="17" font-weight="700" fill="#111827">中际旭创</text>
<text x="56" y="855" font-size="14" fill="#6b7280">300308</text>
<rect x="210" y="804" width="267.6" height="34" rx="7" fill="#ea580c" opacity="0.84"/>
<text x="492.6" y="828" font-size="15" fill="#111827">PE 89.1 / PB 38.5</text>
<text x="210" y="861" font-size="14" fill="#4b5563">2026一季报；营收同比 192.12%；归母净利同比 262.28%；毛利率 46.06%；太平洋《业绩持续超预期增长，光互连全栈布局成…</text>
<text x="56" y="903" font-size="17" font-weight="700" fill="#111827">新易盛</text>
<text x="56" y="929" font-size="14" fill="#6b7280">300502</text>
<rect x="210" y="878" width="225.0" height="34" rx="7" fill="#ea580c" opacity="0.84"/>
<text x="450.0" y="902" font-size="15" fill="#111827">PE 70.8 / PB 39.2</text>
<text x="210" y="935" font-size="14" fill="#4b5563">2026一季报；营收同比 105.76%；归母净利同比 76.80%；毛利率 49.16%；山西证券《1.6T环比上量将加快，盈利能力继续…</text>
<text x="56" y="977" font-size="17" font-weight="700" fill="#111827">英维克</text>
<text x="56" y="1003" font-size="14" fill="#6b7280">002837</text>
<rect x="210" y="952" width="472.0" height="34" rx="7" fill="#dc2626" opacity="0.84"/>
<text x="697.0" y="976" font-size="15" fill="#111827">PE 176.9 / PB 24.7</text>
<text x="210" y="1009" font-size="14" fill="#4b5563">财务指标未取得可靠公开数据；None</text>
</svg>