<svg xmlns="http://www.w3.org/2000/svg" width="1280" height="720" viewBox="0 0 1280 720">
<rect width="100%" height="100%" fill="#ffffff"/>
<text x="46" y="52" font-size="30" font-weight="800" fill="#111827">AI + 医疗 / 多组学 / 生物制造：核心标的交易结构</text>
<text x="46" y="90" font-size="16" fill="#4b5563">横轴为支撑-现价-压力的相对位置；没有完整K线时用现价/前收降级估算，需后续证据校正。</text>
<line x1="260" y1="132" x2="1130" y2="132" stroke="#cbd5e1" stroke-width="2"/>
<text x="252" y="118" font-size="14" fill="#64748b">支撑</text><text x="672" y="118" font-size="14" fill="#64748b">现价</text><text x="1112" y="118" font-size="14" fill="#64748b">压力</text>
<text x="46" y="177" font-size="16" font-weight="700" fill="#111827">药明康德</text>
<text x="46" y="201" font-size="13" fill="#64748b">603259 · AI制药</text>
<line x1="260" y1="170" x2="1130" y2="170" stroke="#e2e8f0" stroke-width="10" stroke-linecap="round"/>
<circle cx="969.9" cy="170" r="12" fill="#2563eb"/>
<text x="260" y="200" font-size="12" fill="#64748b">120.24</text>
<text x="985.9" y="175" font-size="13" fill="#111827">127.51</text>
<text x="1090" y="200" font-size="12" fill="#64748b">129.15</text>
<text x="46" y="239" font-size="16" font-weight="700" fill="#111827">泰格医药</text>
<text x="46" y="263" font-size="13" fill="#64748b">300347 · AI制药</text>
<line x1="260" y1="232" x2="1130" y2="232" stroke="#e2e8f0" stroke-width="10" stroke-linecap="round"/>
<circle cx="786.5" cy="232" r="12" fill="#2563eb"/>
<text x="260" y="262" font-size="12" fill="#64748b">45.91</text>
<text x="802.5" y="237" font-size="13" fill="#111827">48.70</text>
<text x="1090" y="262" font-size="12" fill="#64748b">50.52</text>
<text x="46" y="301" font-size="16" font-weight="700" fill="#111827">成都先导</text>
<text x="46" y="325" font-size="13" fill="#64748b">688222 · AI制药</text>
<line x1="260" y1="294" x2="1130" y2="294" stroke="#e2e8f0" stroke-width="10" stroke-linecap="round"/>
<circle cx="826.8" cy="294" r="12" fill="#2563eb"/>
<text x="260" y="324" font-size="12" fill="#64748b">31.54</text>
<text x="842.8" y="299" font-size="13" fill="#111827">35.52</text>
<text x="1090" y="324" font-size="12" fill="#64748b">37.65</text>
<text x="46" y="363" font-size="16" font-weight="700" fill="#111827">联影医疗</text>
<text x="46" y="387" font-size="13" fill="#64748b">688271 · 医疗影像</text>
<line x1="260" y1="356" x2="1130" y2="356" stroke="#e2e8f0" stroke-width="10" stroke-linecap="round"/>
<circle cx="587.1" cy="356" r="12" fill="#2563eb"/>
<text x="260" y="386" font-size="12" fill="#64748b">108.39</text>
<text x="603.1" y="361" font-size="13" fill="#111827">110.21</text>
<text x="1090" y="386" font-size="12" fill="#64748b">113.23</text>
<text x="46" y="425" font-size="16" font-weight="700" fill="#111827">迈瑞医疗</text>
<text x="46" y="449" font-size="13" fill="#64748b">300760 · 医疗影像</text>
<line x1="260" y1="418" x2="1130" y2="418" stroke="#e2e8f0" stroke-width="10" stroke-linecap="round"/>
<circle cx="297.4" cy="418" r="12" fill="#2563eb"/>
<text x="260" y="448" font-size="12" fill="#64748b">139.68</text>
<text x="313.4" y="423" font-size="13" fill="#111827">139.96</text>
<text x="1090" y="448" font-size="12" fill="#64748b">146.20</text>
<text x="46" y="487" font-size="16" font-weight="700" fill="#111827">万东医疗</text>
<text x="46" y="511" font-size="13" fill="#64748b">600055 · 医疗影像</text>
<line x1="260" y1="480" x2="1130" y2="480" stroke="#e2e8f0" stroke-width="10" stroke-linecap="round"/>
<circle cx="552.5" cy="480" r="12" fill="#2563eb"/>
<text x="260" y="510" font-size="12" fill="#64748b">9.83</text>
<text x="568.5" y="485" font-size="13" fill="#111827">10.61</text>
<text x="1090" y="510" font-size="12" fill="#64748b">12.15</text>
<text x="46" y="549" font-size="16" font-weight="700" fill="#111827">华大智造</text>
<text x="46" y="573" font-size="13" fill="#64748b">688114 · 多组学</text>
<line x1="260" y1="542" x2="1130" y2="542" stroke="#e2e8f0" stroke-width="10" stroke-linecap="round"/>
<circle cx="564.7" cy="542" r="12" fill="#2563eb"/>
<text x="260" y="572" font-size="12" fill="#64748b">47.00</text>
<text x="580.7" y="547" font-size="13" fill="#111827">52.04</text>
<text x="1090" y="572" font-size="12" fill="#64748b">61.39</text>
<text x="46" y="611" font-size="16" font-weight="700" fill="#111827">诺禾致源</text>
<text x="46" y="635" font-size="13" fill="#64748b">688315 · 多组学</text>
<line x1="260" y1="604" x2="1130" y2="604" stroke="#e2e8f0" stroke-width="10" stroke-linecap="round"/>
<circle cx="615.1" cy="604" r="12" fill="#2563eb"/>
<text x="260" y="634" font-size="12" fill="#64748b">12.82</text>
<text x="631.1" y="609" font-size="13" fill="#111827">13.22</text>
<text x="1090" y="634" font-size="12" fill="#64748b">13.80</text>
<text x="46" y="673" font-size="16" font-weight="700" fill="#111827">贝瑞基因</text>
<text x="46" y="697" font-size="13" fill="#64748b">000710 · 多组学</text>
<line x1="260" y1="666" x2="1130" y2="666" stroke="#e2e8f0" stroke-width="10" stroke-linecap="round"/>
<circle cx="339.5" cy="666" r="12" fill="#2563eb"/>
<text x="260" y="696" font-size="12" fill="#64748b">7.77</text>
<text x="355.5" y="671" font-size="13" fill="#111827">7.87</text>
<text x="1090" y="696" font-size="12" fill="#64748b">8.83</text>
<text x="46" y="735" font-size="16" font-weight="700" fill="#111827">凯莱英</text>
<text x="46" y="759" font-size="13" fill="#64748b">002821 · 合成生物/医疗服务</text>
<line x1="260" y1="728" x2="1130" y2="728" stroke="#e2e8f0" stroke-width="10" stroke-linecap="round"/>
<circle cx="926.2" cy="728" r="12" fill="#2563eb"/>
<text x="260" y="758" font-size="12" fill="#64748b">165.33</text>
<text x="942.2" y="733" font-size="13" fill="#111827">177.95</text>
<text x="1090" y="758" font-size="12" fill="#64748b">181.81</text>
<text x="46" y="797" font-size="16" font-weight="700" fill="#111827">博腾股份</text>
<text x="46" y="821" font-size="13" fill="#64748b">300363 · 合成生物/医疗服务</text>
<line x1="260" y1="790" x2="1130" y2="790" stroke="#e2e8f0" stroke-width="10" stroke-linecap="round"/>
<circle cx="516.4" cy="790" r="12" fill="#2563eb"/>
<text x="260" y="820" font-size="12" fill="#64748b">18.05</text>
<text x="532.4" y="795" font-size="13" fill="#111827">18.33</text>
<text x="1090" y="820" font-size="12" fill="#64748b">19.00</text>
<text x="46" y="859" font-size="16" font-weight="700" fill="#111827">川宁生物</text>
<text x="46" y="883" font-size="13" fill="#64748b">301301 · 合成生物/医疗服务</text>
<line x1="260" y1="852" x2="1130" y2="852" stroke="#e2e8f0" stroke-width="10" stroke-linecap="round"/>
<circle cx="517.0" cy="852" r="12" fill="#2563eb"/>
<text x="260" y="882" font-size="12" fill="#64748b">8.44</text>
<text x="533.0" y="857" font-size="13" fill="#111827">8.57</text>
<text x="1090" y="882" font-size="12" fill="#64748b">8.88</text>
</svg>