<svg xmlns="http://www.w3.org/2000/svg" width="1280" height="720" viewBox="0 0 1280 720">
<rect width="100%" height="100%" fill="#ffffff"/>
<text x="46" y="52" font-size="30" font-weight="800" fill="#111827">AI 应用商业化与垂直行业模型：核心标的交易结构</text>
<text x="46" y="90" font-size="16" fill="#4b5563">横轴为支撑-现价-压力的相对位置；没有完整K线时用现价/前收降级估算，需后续证据校正。</text>
<line x1="260" y1="132" x2="1130" y2="132" stroke="#cbd5e1" stroke-width="2"/>
<text x="252" y="118" font-size="14" fill="#64748b">支撑</text><text x="672" y="118" font-size="14" fill="#64748b">现价</text><text x="1112" y="118" font-size="14" fill="#64748b">压力</text>
<text x="46" y="177" font-size="16" font-weight="700" fill="#111827">科大讯飞</text>
<text x="46" y="201" font-size="13" fill="#64748b">002230 · 垂直行业模型</text>
<line x1="260" y1="170" x2="1130" y2="170" stroke="#e2e8f0" stroke-width="10" stroke-linecap="round"/>
<circle cx="608.0" cy="170" r="12" fill="#2563eb"/>
<text x="260" y="200" font-size="12" fill="#64748b">38.98</text>
<text x="624.0" y="175" font-size="13" fill="#111827">41.18</text>
<text x="1090" y="200" font-size="12" fill="#64748b">44.48</text>
<text x="46" y="239" font-size="16" font-weight="700" fill="#111827">金山办公</text>
<text x="46" y="263" font-size="13" fill="#64748b">688111 · 垂直行业模型</text>
<line x1="260" y1="232" x2="1130" y2="232" stroke="#e2e8f0" stroke-width="10" stroke-linecap="round"/>
<circle cx="473.4" cy="232" r="12" fill="#2563eb"/>
<text x="260" y="262" font-size="12" fill="#64748b">216.07</text>
<text x="489.4" y="237" font-size="13" fill="#111827">222.63</text>
<text x="1090" y="262" font-size="12" fill="#64748b">242.80</text>
<text x="46" y="301" font-size="16" font-weight="700" fill="#111827">昆仑万维</text>
<text x="46" y="325" font-size="13" fill="#64748b">300418 · 垂直行业模型</text>
<line x1="260" y1="294" x2="1130" y2="294" stroke="#e2e8f0" stroke-width="10" stroke-linecap="round"/>
<circle cx="482.0" cy="294" r="12" fill="#2563eb"/>
<text x="260" y="324" font-size="12" fill="#64748b">43.33</text>
<text x="498.0" y="299" font-size="13" fill="#111827">45.93</text>
<text x="1090" y="324" font-size="12" fill="#64748b">53.53</text>
<text x="46" y="363" font-size="16" font-weight="700" fill="#111827">用友网络</text>
<text x="46" y="387" font-size="13" fill="#64748b">600588 · 企业SaaS</text>
<line x1="260" y1="356" x2="1130" y2="356" stroke="#e2e8f0" stroke-width="10" stroke-linecap="round"/>
<circle cx="544.0" cy="356" r="12" fill="#2563eb"/>
<text x="260" y="386" font-size="12" fill="#64748b">8.73</text>
<text x="560.0" y="361" font-size="13" fill="#111827">9.20</text>
<text x="1090" y="386" font-size="12" fill="#64748b">10.17</text>
<text x="46" y="425" font-size="16" font-weight="700" fill="#111827">金山办公</text>
<text x="46" y="449" font-size="13" fill="#64748b">688111 · 企业SaaS</text>
<line x1="260" y1="418" x2="1130" y2="418" stroke="#e2e8f0" stroke-width="10" stroke-linecap="round"/>
<circle cx="473.4" cy="418" r="12" fill="#2563eb"/>
<text x="260" y="448" font-size="12" fill="#64748b">216.07</text>
<text x="489.4" y="423" font-size="13" fill="#111827">222.63</text>
<text x="1090" y="448" font-size="12" fill="#64748b">242.80</text>
<text x="46" y="487" font-size="16" font-weight="700" fill="#111827">泛微网络</text>
<text x="46" y="511" font-size="13" fill="#64748b">603039 · 企业SaaS</text>
<line x1="260" y1="480" x2="1130" y2="480" stroke="#e2e8f0" stroke-width="10" stroke-linecap="round"/>
<circle cx="291.9" cy="480" r="12" fill="#2563eb"/>
<text x="260" y="510" font-size="12" fill="#64748b">30.16</text>
<text x="307.9" y="485" font-size="13" fill="#111827">30.85</text>
<text x="1090" y="510" font-size="12" fill="#64748b">48.96</text>
<text x="46" y="549" font-size="16" font-weight="700" fill="#111827">焦点科技</text>
<text x="46" y="573" font-size="13" fill="#64748b">002315 · 营销/内容生产</text>
<line x1="260" y1="542" x2="1130" y2="542" stroke="#e2e8f0" stroke-width="10" stroke-linecap="round"/>
<circle cx="352.6" cy="542" r="12" fill="#2563eb"/>
<text x="260" y="572" font-size="12" fill="#64748b">22.04</text>
<text x="368.6" y="547" font-size="13" fill="#111827">22.37</text>
<text x="1090" y="572" font-size="12" fill="#64748b">25.14</text>
<text x="46" y="611" font-size="16" font-weight="700" fill="#111827">三人行</text>
<text x="46" y="635" font-size="13" fill="#64748b">605168 · 营销/内容生产</text>
<line x1="260" y1="604" x2="1130" y2="604" stroke="#e2e8f0" stroke-width="10" stroke-linecap="round"/>
<circle cx="294.0" cy="604" r="12" fill="#2563eb"/>
<text x="260" y="634" font-size="12" fill="#64748b">39.68</text>
<text x="310.0" y="609" font-size="13" fill="#111827">40.52</text>
<text x="1090" y="634" font-size="12" fill="#64748b">61.20</text>
<text x="46" y="673" font-size="16" font-weight="700" fill="#111827">蓝色光标</text>
<text x="46" y="697" font-size="13" fill="#64748b">300058 · 营销/内容生产</text>
<line x1="260" y1="666" x2="1130" y2="666" stroke="#e2e8f0" stroke-width="10" stroke-linecap="round"/>
<circle cx="374.6" cy="666" r="12" fill="#2563eb"/>
<text x="260" y="696" font-size="12" fill="#64748b">11.86</text>
<text x="390.6" y="671" font-size="13" fill="#111827">12.42</text>
<text x="1090" y="696" font-size="12" fill="#64748b">16.11</text>
<text x="46" y="735" font-size="16" font-weight="700" fill="#111827">值得买</text>
<text x="46" y="759" font-size="13" fill="#64748b">300785 · ROI/留存</text>
<line x1="260" y1="728" x2="1130" y2="728" stroke="#e2e8f0" stroke-width="10" stroke-linecap="round"/>
<circle cx="387.7" cy="728" r="12" fill="#2563eb"/>
<text x="260" y="758" font-size="12" fill="#64748b">32.45</text>
<text x="403.7" y="733" font-size="13" fill="#111827">33.83</text>
<text x="1090" y="758" font-size="12" fill="#64748b">41.85</text>
<text x="46" y="797" font-size="16" font-weight="700" fill="#111827">天下秀</text>
<text x="46" y="821" font-size="13" fill="#64748b">600556 · ROI/留存</text>
<line x1="260" y1="790" x2="1130" y2="790" stroke="#e2e8f0" stroke-width="10" stroke-linecap="round"/>
<circle cx="319.3" cy="790" r="12" fill="#2563eb"/>
<text x="260" y="820" font-size="12" fill="#64748b">4.18</text>
<text x="335.3" y="795" font-size="13" fill="#111827">4.24</text>
<text x="1090" y="820" font-size="12" fill="#64748b">5.06</text>
<text x="46" y="859" font-size="16" font-weight="700" fill="#111827">遥望科技</text>
<text x="46" y="883" font-size="13" fill="#64748b">002291 · ROI/留存</text>
<line x1="260" y1="852" x2="1130" y2="852" stroke="#e2e8f0" stroke-width="10" stroke-linecap="round"/>
<circle cx="325.0" cy="852" r="12" fill="#2563eb"/>
<text x="260" y="882" font-size="12" fill="#64748b">4.62</text>
<text x="341.0" y="857" font-size="13" fill="#111827">4.70</text>
<text x="1090" y="882" font-size="12" fill="#64748b">5.69</text>
</svg>